  0
SECTION
  2
HEADER
  9
$ACADVER
  1
AC1015
  9
$INSUNITS
 70
4
  0
ENDSEC
  0
SECTION
  2
TABLES
  0
TABLE
  2
LAYER
 70
1
  0
LAYER
  2
0
 70
0
 62
7
  6
Continuous
  0
ENDTAB
  0
ENDSEC
  0
SECTION
  2
ENTITIES
  0
LINE
  8
0
 10
0.0
 20
0.0
 30
0.0
 11
350.0
 21
0.0
 31
0.0
  0
ARC
  8
0
 10
350.0
 20
10.0
 30
0.0
 40
10.0
 50
270.0
 51
0.0
  0
LINE
  8
0
 10
360.0
 20
10.0
 30
0.0
 11
360.0
 21
240.0
 31
0.0
  0
ARC
  8
0
 10
350.0
 20
240.0
 30
0.0
 40
10.0
 50
0.0
 51
90.0
  0
LINE
  8
0
 10
350.0
 20
250.0
 30
0.0
 11
0.0
 21
250.0
 31
0.0
  0
LINE
  8
0
 10
0.0
 20
250.0
 30
0.0
 11
0.0
 21
0.0
 31
0.0
  0
ENDSEC
  0
EOF