  0
SECTION
  2
HEADER
  9
$ACADVER
  1
AC1015
  9
$INSUNITS
 70
4
  0
ENDSEC
  0
SECTION
  2
TABLES
  0
TABLE
  2
LAYER
 70
2
  0
LAYER
  2
0
 70
0
 62
7
  6
Continuous
  0
LAYER
  2
CUT
 70
0
 62
3
  6
Continuous
  0
ENDTAB
  0
ENDSEC
  0
SECTION
  2
ENTITIES
  0
LINE
  8
0
 10
0.0
 20
0.0
 30
0.0
 11
160.0
 21
0.0
 31
0.0
  0
LINE
  8
0
 10
240.0
 20
0.0
 30
0.0
 11
400.0
 21
0.0
 31
0.0
  0
LINE
  8
0
 10
400.0
 20
0.0
 30
0.0
 11
400.0
 21
300.0
 31
0.0
  0
LINE
  8
0
 10
400.0
 20
300.0
 30
0.0
 11
0.0
 21
300.0
 31
0.0
  0
LINE
  8
0
 10
0.0
 20
300.0
 30
0.0
 11
0.0
 21
0.0
 31
0.0
  0
ARC
  8
CUT
 10
200.0
 20
0.0
 30
0.0
 40
40.0
 50
0.0
 51
180.0
  0
ENDSEC
  0
EOF