0
SECTION
2
HEADER
9
$ACADVER
1
AC1024
9
$DWGCODEPAGE
3
ANSI_1251
9
$INSUNITS
70
1
9
$EXTMIN
10
1826.225379661304
20
1559.1059139964
30
0.0
9
$EXTMAX
10
2687.074717706878
20
3558.716328424518
30
0.0
0
ENDSEC
0
SECTION
2
TABLES
0
TABLE
2
LTYPE
70
1
0
LTYPE
2
Continuous
70
0
3
Solid line
72
65
73
0
40
0.0
0
ENDTAB
0
TABLE
2
LAYER
70
1
0
LAYER
2
0
70
0
62
7
6
Continuous
0
ENDTAB
0
ENDSEC
0
SECTION
2
ENTITIES
0
LWPOLYLINE
5
1971
100
AcDbEntity
8
0
100
AcDbPolyline
90
14
70
1
43
0.0
10
1987.074717706877
20
1559.1059139964
42
-0.1918616688086696
10
1949.254558810276
20
1574.173025532884
42
0.1919421812173913
10
1894.225379661304
20
1596.1059139964
10
1827.639593223676
20
1596.1059139964
42
-0.1989123673796577
10
1826.932486442493
20
1596.398807215216
10
1826.225379661304
20
1597.1059139964
10
1826.225379661304
20
3520.716328424518
10
1826.932486442493
20
3521.423435205703
42
-0.1989123673796577
10
1827.639593223676
20
3521.716328424518
10
1894.225379661304
20
3521.716328424518
42
0.1919421812173913
10
1949.254558810276
20
3543.649216888034
42
-0.1918616688086696
10
1987.074717706877
20
3558.716328424518
10
2687.074717706878
20
3558.716328424518
10
2687.074717706878
20
1559.1059139964
0
CIRCLE
5
1970
100
AcDbEntity
8
0
100
AcDbCircle
10
1972.225379661305
20
1592.105913996401
30
0.0
40
10.0
0
CIRCLE
5
197D
100
AcDbEntity
8
0
100
AcDbCircle
10
1972.225379661305
20
3525.716328424517
30
0.0
40
10.0
0
CIRCLE
5
1981
100
AcDbEntity
8
0
100
AcDbCircle
10
2587.074717706876
20
2659.1059139964
30
0.0
40
2.5
0
CIRCLE
5
1982
100
AcDbEntity
8
0
100
AcDbCircle
10
2587.074717706876
20
2459.1059139964
30
0.0
40
2.5
0
ENDSEC
0
EOF
