0
SECTION
2
HEADER
9
$ACADVER
1
AC1015
9
$INSUNITS
70
4
0
ENDSEC
0
SECTION
2
TABLES
0
TABLE
2
LTYPE
70
1
0
LTYPE
2
Continuous
70
0
3
Solid line
72
65
73
0
40
0.0
0
ENDTAB
0
TABLE
2
LAYER
70
1
0
LAYER
2
0
70
0
62
7
6
Continuous
0
ENDTAB
0
TABLE
2
STYLE
70
1
0
STYLE
2
Standard
70
0
40
0.0
41
1.0
50
0.0
71
0
42
2.5
3
arial.ttf
4

0
ENDTAB
0
ENDSEC
0
SECTION
2
BLOCKS
0
ENDSEC
0
SECTION
2
ENTITIES
0
LINE
5
C1696
100
AcDbEntity
8
0
100
AcDbLine
10
4480.163794023535
20
4685.373588512123
30
0.0
11
4480.163794023535
21
4610.373588512124
31
0.0
0
LINE
5
C1697
100
AcDbEntity
8
0
100
AcDbLine
10
4480.163794023535
20
4610.373588512124
30
0.0
11
5987.163794023536
21
4610.373588512124
31
0.0
0
LINE
5
C1698
100
AcDbEntity
8
0
100
AcDbLine
10
5987.163794023536
20
4610.373588512124
30
0.0
11
5987.163794023536
21
5140.373588512124
31
0.0
0
ARC
5
C1699
100
AcDbEntity
8
0
100
AcDbCircle
10
7468.949885384512
20
-2490.590454742775
30
0.0
40
7773.5
100
AcDbArc
50
100.988980315495
51
112.6117078338323
0
MTEXT
5
C17C3
100
AcDbEntity
8
0
100
AcDbMText
10
5247.032362720283
20
4789.749574620858
30
0.0
40
50.0
41
73.72641618626587
71
1
72
5
1
21164
73
1
44
1.0
0
ENDSEC
0
EOF