0
SECTION
2
HEADER
9
$ACADVER
1
AC1009
0
ENDSEC
0
SECTION
2
TABLES
0
TABLE
2
LAYER
70
3
0
LAYER
2
CUT
70
0
62
1
6
CONTINUOUS
0
LAYER
2
HOLES
70
0
62
3
6
CONTINUOUS
0
LAYER
2
LABELS
70
0
62
7
6
CONTINUOUS
0
ENDTAB
0
ENDSEC
0
SECTION
2
ENTITIES
0
LINE
8
CUT
10
0
20
0
30
0
11
800
21
0
31
0
0
LINE
8
CUT
10
800
20
0
30
0
11
800
21
500
31
0
0
LINE
8
CUT
10
800
20
500
30
0
11
0
21
500
31
0
0
LINE
8
CUT
10
0
20
500
30
0
11
0
21
0
31
0
0
CIRCLE
8
HOLES
10
80
20
80
30
0
40
12
0
CIRCLE
8
HOLES
10
720
20
80
30
0
40
12
0
CIRCLE
8
HOLES
10
80
20
420
30
0
40
12
0
CIRCLE
8
HOLES
10
720
20
420
30
0
40
12
0
TEXT
8
LABELS
10
0
20
545
30
0
40
32
1
DOOR_800x500_4holes
7
STANDARD
0
LINE
8
CUT
10
1000
20
0
30
0
11
1900
21
0
31
0
0
LINE
8
CUT
10
1900
20
0
30
0
11
1900
21
300
31
0
0
LINE
8
CUT
10
1900
20
300
30
0
11
1000
21
300
31
0
0
LINE
8
CUT
10
1000
20
300
30
0
11
1000
21
0
31
0
0
CIRCLE
8
HOLES
10
1100
20
150
30
0
40
10
0
CIRCLE
8
HOLES
10
1800
20
150
30
0
40
10
0
TEXT
8
LABELS
10
1000
20
345
30
0
40
32
1
MIRROR_900x300_2holes
7
STANDARD
0
LINE
8
CUT
10
0
20
700
30
0
11
700
21
700
31
0
0
LINE
8
CUT
10
700
20
700
30
0
11
700
21
1200
31
0
0
LINE
8
CUT
10
700
20
1200
30
0
11
450
21
1200
31
0
0
LINE
8
CUT
10
450
20
1200
30
0
11
450
21
950
31
0
0
LINE
8
CUT
10
450
20
950
30
0
11
0
21
950
31
0
0
LINE
8
CUT
10
0
20
950
30
0
11
0
21
700
31
0
0
TEXT
8
LABELS
10
0
20
1245
30
0
40
32
1
L_PANEL_700x500_NOTCH
7
STANDARD
0
LINE
8
CUT
10
1000
20
700
30
0
11
1600
21
700
31
0
0
LINE
8
CUT
10
1600
20
700
30
0
11
1520
21
1050
31
0
0
LINE
8
CUT
10
1520
20
1050
30
0
11
1080
21
1050
31
0
0
LINE
8
CUT
10
1080
20
1050
30
0
11
1000
21
700
31
0
0
TEXT
8
LABELS
10
1000
20
1095
30
0
40
32
1
TRAPEZE_SHELF
7
STANDARD
0
LINE
8
CUT
10
1800
20
700
30
0
11
2150
21
700
31
0
0
LINE
8
CUT
10
2150
20
700
30
0
11
2150
21
950
31
0
0
LINE
8
CUT
10
2150
20
950
30
0
11
1800
21
950
31
0
0
LINE
8
CUT
10
1800
20
950
30
0
11
1800
21
700
31
0
0
TEXT
8
LABELS
10
1800
20
995
30
0
40
32
1
SMALL_GLASS_350x250
7
STANDARD
0
ENDSEC
0
EOF