  0
SECTION
  2
HEADER
  9
$ACADVER
  1
AC1015
  9
$INSUNITS
 70
     4
  0
ENDSEC
  0
SECTION
  2
TABLES
  0
TABLE
  2
LTYPE
  5
5
100
AcDbSymbolTable
 70
     1
  0
LTYPE
  5
14
100
AcDbSymbolTableRecord
100
AcDbLinetypeTableRecord
  2
ByBlock
 70
     0
  3

 72
    65
 73
     0
 40
0.0
  0
LTYPE
  5
15
100
AcDbSymbolTableRecord
100
AcDbLinetypeTableRecord
  2
ByLayer
 70
     0
  3

 72
    65
 73
     0
 40
0.0
  0
LTYPE
  5
16
100
AcDbSymbolTableRecord
100
AcDbLinetypeTableRecord
  2
Continuous
 70
     0
  3
Solid line
 72
    65
 73
     0
 40
0.0
  0
ENDTAB
  0
TABLE
  2
LAYER
  5
2
100
AcDbSymbolTable
 70
     1
  0
LAYER
  5
10
100
AcDbSymbolTableRecord
100
AcDbLayerTableRecord
  2
0
 70
     0
 62
     7
  6
Continuous
  0
ENDTAB
  0
TABLE
  2
STYLE
  5
3
100
AcDbSymbolTable
 70
     0
  0
ENDTAB
  0
TABLE
  2
VIEW
  5
6
100
AcDbSymbolTable
 70
     0
  0
ENDTAB
  0
TABLE
  2
UCS
  5
7
100
AcDbSymbolTable
 70
     0
  0
ENDTAB
  0
TABLE
  2
APPID
  5
9
100
AcDbSymbolTable
 70
     1
  0
APPID
  5
12
100
AcDbSymbolTableRecord
100
AcDbRegAppTableRecord
  2
ACAD
 70
     0
  0
ENDTAB
  0
TABLE
  2
DIMSTYLE
  5
A
100
AcDbSymbolTable
100
AcDbDimStyleTable
 70
     0
  0
ENDTAB
  0
TABLE
  2
BLOCK_RECORD
  5
1
100
AcDbSymbolTable
 70
     2
  0
BLOCK_RECORD
  5
1F
100
AcDbSymbolTableRecord
100
AcDbBlockTableRecord
  2
*Model_Space
  0
BLOCK_RECORD
  5
1B
100
AcDbSymbolTableRecord
100
AcDbBlockTableRecord
  2
*Paper_Space
  0
ENDTAB
  0
ENDSEC
  0
SECTION
  2
BLOCKS
  0
BLOCK
  5
20
100
AcDbEntity
  8
0
100
AcDbBlockBegin
  2
*Model_Space
 70
     0
 10
0.0
 20
0.0
 30
0.0
  3
*Model_Space
  1

  0
ENDBLK
  5
21
100
AcDbEntity
  8
0
100
AcDbBlockEnd
  0
BLOCK
  5
1C
100
AcDbEntity
 67
     1
  8
0
100
AcDbBlockBegin
  2
*Paper_Space
 70
     0
 10
0.0
 20
0.0
 30
0.0
  3
*Paper_Space
  1

  0
ENDBLK
  5
1D
100
AcDbEntity
 67
     1
  8
0
100
AcDbBlockEnd
  0
ENDSEC
  0
SECTION
  2
ENTITIES
  0
LINE
  5
101
100
AcDbEntity
  8
0
100
AcDbLine
 10
11306.43773738765
 20
5928.889279687561
 30
0.0
 11
10000.95423915561
 21
5928.889279687563
 31
0.0
  0
LINE
  5
102
100
AcDbEntity
  8
0
100
AcDbLine
 10
10000.95423915561
 20
5928.889279687563
 30
0.0
 11
9489.861967196148
 21
6948.49037488554
 31
0.0
  0
LINE
  5
103
100
AcDbEntity
  8
0
100
AcDbLine
 10
9489.861967196148
 20
6948.49037488554
 30
0.0
 11
9489.861967196148
 21
7174.389279687559
 31
0.0
  0
LINE
  5
104
100
AcDbEntity
  8
0
100
AcDbLine
 10
9489.861967196148
 20
7174.389279687559
 30
0.0
 11
9652.861967196148
 21
7174.389279687559
 31
0.0
  0
LINE
  5
105
100
AcDbEntity
  8
0
100
AcDbLine
 10
9652.861967196148
 20
7174.389279687559
 30
0.0
 11
9652.861967196148
 21
7280.389279687558
 31
0.0
  0
LINE
  5
106
100
AcDbEntity
  8
0
100
AcDbLine
 10
9652.861967196148
 20
7280.389279687558
 30
0.0
 11
10734.86196719615
 21
7280.389279687558
 31
0.0
  0
LINE
  5
107
100
AcDbEntity
  8
0
100
AcDbLine
 10
10734.86196719615
 20
7280.389279687558
 30
0.0
 11
11413.42524779565
 21
5928.889279687561
 31
0.0
  0
LINE
  5
108
100
AcDbEntity
  8
0
100
AcDbLine
 10
11413.42524779565
 20
5928.889279687561
 30
0.0
 11
11326.43773738765
 21
5928.889279687561
 31
0.0
  0
LINE
  5
109
100
AcDbEntity
  8
0
100
AcDbLine
 10
11326.43773738765
 20
5928.889279687561
 30
0.0
 11
11326.43773738765
 21
5948.889279687562
 31
0.0
  0
ARC
  5
10A
100
AcDbEntity
  8
0
100
AcDbCircle
 10
11316.43773738765
 20
5948.889279687562
 30
0.0
 40
10.0
100
AcDbArc
 50
9.5e-15
 51
180.0
  0
LINE
  5
10B
100
AcDbEntity
  8
0
100
AcDbLine
 10
11306.43773738765
 20
5948.889279687562
 30
0.0
 11
11306.43773738765
 21
5928.889279687561
 31
0.0
  0
CIRCLE
  5
10C
100
AcDbEntity
  8
0
100
AcDbCircle
 10
9797.861967196148
 20
6897.389279687558
 30
0.0
 40
12.0
  0
CIRCLE
  5
10D
100
AcDbEntity
  8
0
100
AcDbCircle
 10
9646.861967196148
 20
6897.389279687556
 30
0.0
 40
12.0
  0
CIRCLE
  5
10E
100
AcDbEntity
  8
0
100
AcDbCircle
 10
10096.86196719615
 20
6290.389279687559
 30
0.0
 40
12.0
  0
CIRCLE
  5
10F
100
AcDbEntity
  8
0
100
AcDbCircle
 10
9945.86196719615
 20
6290.389279687556
 30
0.0
 40
12.0
  0
ENDSEC
  0
SECTION
  2
OBJECTS
  0
DICTIONARY
  5
C
100
AcDbDictionary
281
     1
  3
ACAD_GROUP
350
D
  0
DICTIONARY
  5
D
330
C
100
AcDbDictionary
281
     1
  0
ENDSEC
  0
EOF
