  0
SECTION
  2
HEADER
  9
$ACADVER
  1
AC1024
  9
$INSUNITS
 70
4
  0
ENDSEC
  0
SECTION
  2
TABLES
  0
TABLE
  2
LAYER
 70
1
  0
LAYER
  2
0
 70
0
 62
7
  6
Continuous
  0
ENDTAB
  0
ENDSEC
  0
SECTION
  2
BLOCKS
  0
ENDSEC
  0
SECTION
  2
ENTITIES
  0
LINE
  8
0
 10
0.0000
 20
0.0000
 30
0.0000
 11
180.0000
 21
0.0000
 31
0.0000
  0
LINE
  8
0
 10
220.0000
 20
0.0000
 30
0.0000
 11
400.0000
 21
0.0000
 31
0.0000
  0
LINE
  8
0
 10
400.0000
 20
0.0000
 30
0.0000
 11
400.0000
 21
250.0000
 31
0.0000
  0
LINE
  8
0
 10
400.0000
 20
250.0000
 30
0.0000
 11
230.0000
 21
250.0000
 31
0.0000
  0
LINE
  8
0
 10
170.0000
 20
250.0000
 30
0.0000
 11
0.0000
 21
250.0000
 31
0.0000
  0
LINE
  8
0
 10
0.0000
 20
250.0000
 30
0.0000
 11
0.0000
 21
0.0000
 31
0.0000
  0
LINE
  8
CUT
 10
170.0000
 20
250.0000
 30
0.0000
 11
170.0000
 21
225.0000
 31
0.0000
  0
LINE
  8
CUT
 10
170.0000
 20
225.0000
 30
0.0000
 11
230.0000
 21
225.0000
 31
0.0000
  0
LINE
  8
CUT
 10
230.0000
 20
225.0000
 30
0.0000
 11
230.0000
 21
250.0000
 31
0.0000
  0
LINE
  8
0
 10
180.0000
 20
0.0000
 30
0.0000
 11
180.0000
 21
20.0000
 31
0.0000
  0
LINE
  8
0
 10
180.0000
 20
20.0000
 30
0.0000
 11
220.0000
 21
20.0000
 31
0.0000
  0
LINE
  8
0
 10
220.0000
 20
20.0000
 30
0.0000
 11
220.0000
 21
0.0000
 31
0.0000
  0
CIRCLE
  8
0
 10
100.0000
 20
125.0000
 30
0.0000
 40
15.0000
  0
ENDSEC
  0
EOF