0
SECTION
2
HEADER
9
$ACADVER
1
AC1024
0
ENDSEC
0
SECTION
2
TABLES
0
TABLE
2
LAYER
70
1
0
LAYER
2
0
70
0
62
7
6
CONTINUOUS
0
ENDTAB
0
ENDSEC
0
SECTION
2
ENTITIES
0
LINE
8
0
10
-27110.522716
20
-150859.213888
30
0.0
11
-26210.522716
21
-150859.213888
31
0.0
0
LINE
8
0
10
-26210.522716
20
-150859.213888
30
0.0
11
-26210.522716
21
-149509.213888
31
0.0
0
LINE
8
0
10
-26210.522716
20
-149509.213888
30
0.0
11
-26660.522716
21
-149059.213888
31
0.0
0
LINE
8
0
10
-26660.522716
20
-149059.213888
30
0.0
11
-27110.522716
21
-149509.213888
31
0.0
0
LINE
8
0
10
-27110.522716
20
-149509.213888
30
0.0
11
-27110.522716
21
-150859.213888
31
0.0
0
ENDSEC
0
EOF
