  0
SECTION
  2
HEADER
  9
$ACADVER
  1
AC1009
  9
$INSBASE
 10
0.0
 20
0.0
 30
0.0
  9
$EXTMIN
 10
-4370.407969297899399
 20
-321.57421875
 30
0.0
  9
$EXTMAX
 10
7852.6650118016395936
 20
7674.9029452530303388
 30
0.0
  9
$LIMMIN
 10
0.0
 20
0.0
  9
$LIMMAX
 10
420.0
 20
297.0
  9
$ORTHOMODE
 70
     0
  9
$REGENMODE
 70
     1
  9
$FILLMODE
 70
     1
  9
$QTEXTMODE
 70
     0
  9
$MIRRTEXT
 70
     1
  9
$DRAGMODE
 70
     2
  9
$LTSCALE
 40
1.0
  9
$OSMODE
 70
  3583
  9
$ATTMODE
 70
     1
  9
$TEXTSIZE
 40
2.5
  9
$TRACEWID
 40
1.0
  9
$TEXTSTYLE
  7
STANDARD
  9
$CLAYER
  8
0
  9
$CELTYPE
  6
BYLAYER
  9
$CECOLOR
 62
   256
  9
$DIMSCALE
 40
1.0
  9
$DIMASZ
 40
2.5
  9
$DIMEXO
 40
0.625
  9
$DIMDLI
 40
3.75
  9
$DIMRND
 40
0.0
  9
$DIMDLE
 40
0.0
  9
$DIMEXE
 40
1.25
  9
$DIMTP
 40
0.0
  9
$DIMTM
 40
0.0
  9
$DIMTXT
 40
2.5
  9
$DIMCEN
 40
2.5
  9
$DIMTSZ
 40
0.0
  9
$DIMTOL
 70
     0
  9
$DIMLIM
 70
     0
  9
$DIMTIH
 70
     0
  9
$DIMTOH
 70
     0
  9
$DIMSE1
 70
     0
  9
$DIMSE2
 70
     0
  9
$DIMTAD
 70
     1
  9
$DIMZIN
 70
     8
  9
$DIMBLK
  1

  9
$DIMASO
 70
     1
  9
$DIMSHO
 70
     1
  9
$DIMPOST
  1

  9
$DIMAPOST
  1

  9
$DIMALT
 70
     0
  9
$DIMALTD
 70
     3
  9
$DIMALTF
 40
0.03937007874016
  9
$DIMLFAC
 40
1.0
  9
$DIMTOFL
 70
     1
  9
$DIMTVP
 40
0.0
  9
$DIMTIX
 70
     0
  9
$DIMSOXD
 70
     0
  9
$DIMSAH
 70
     0
  9
$DIMBLK1
  1

  9
$DIMBLK2
  1

  9
$DIMSTYLE
  2
ISO-25
  9
$DIMCLRD
 70
     0
  9
$DIMCLRE
 70
     0
  9
$DIMCLRT
 70
     0
  9
$DIMTFAC
 40
1.0
  9
$DIMGAP
 40
0.625
  9
$LUNITS
 70
     2
  9
$LUPREC
 70
     4
  9
$SKETCHINC
 40
1.0
  9
$FILLETRAD
 40
10.0
  9
$AUNITS
 70
     0
  9
$AUPREC
 70
     0
  9
$MENU
  1
.
  9
$ELEVATION
 40
0.0
  9
$PELEVATION
 40
0.0
  9
$THICKNESS
 40
0.0
  9
$LIMCHECK
 70
     0
  9
$BLIPMODE
 70
     0
  9
$CHAMFERA
 40
10.0
  9
$CHAMFERB
 40
10.0
  9
$SKPOLY
 70
     0
  9
$TDCREATE
 40
2460479.4250925919041038
  9
$TDUPDATE
 40
2461141.7946180561557412
  9
$TDINDWG
 40
0.0362392361
  9
$TDUSRTIMER
 40
0.0362390625
  9
$USRTIMER
 70
     1
  9
$ANGBASE
 50
0.0
  9
$ANGDIR
 70
     0
  9
$PDMODE
 70
     2
  9
$PDSIZE
 40
0.0
  9
$PLINEWID
 40
0.0
  9
$COORDS
 70
     1
  9
$SPLFRAME
 70
     0
  9
$SPLINETYPE
 70
     6
  9
$SPLINESEGS
 70
     8
  9
$ATTDIA
 70
     1
  9
$ATTREQ
 70
     1
  9
$HANDLING
 70
     1
  9
$HANDSEED
  5
5CE
  9
$SURFTAB1
 70
     6
  9
$SURFTAB2
 70
     6
  9
$SURFTYPE
 70
     6
  9
$SURFU
 70
     6
  9
$SURFV
 70
     6
  9
$UCSNAME
  2

  9
$UCSORG
 10
0.0
 20
0.0
 30
0.0
  9
$UCSXDIR
 10
1.0
 20
0.0
 30
0.0
  9
$UCSYDIR
 10
0.0
 20
1.0
 30
0.0
  9
$PUCSNAME
  2

  9
$PUCSORG
 10
0.0
 20
0.0
 30
0.0
  9
$PUCSXDIR
 10
1.0
 20
0.0
 30
0.0
  9
$PUCSYDIR
 10
0.0
 20
1.0
 30
0.0
  9
$USERI1
 70
     0
  9
$USERI2
 70
     0
  9
$USERI3
 70
     0
  9
$USERI4
 70
     0
  9
$USERI5
 70
     0
  9
$USERR1
 40
0.0
  9
$USERR2
 40
0.0
  9
$USERR3
 40
0.0
  9
$USERR4
 40
0.0
  9
$USERR5
 40
0.0
  9
$WORLDVIEW
 70
     1
  9
$SHADEDGE
 70
     3
  9
$SHADEDIF
 70
    70
  9
$TILEMODE
 70
     1
  9
$MAXACTVP
 70
    64
  9
$PLIMCHECK
 70
     0
  9
$PEXTMIN
 10
1.0000000000000000E+20
 20
1.0000000000000000E+20
 30
1.0000000000000000E+20
  9
$PEXTMAX
 10
1.0000000000000000E+20
 20
1.0000000000000000E+20
 30
1.0000000000000000E+20
  9
$PLIMMIN
 10
0.0
 20
0.0
  9
$PLIMMAX
 10
420.0
 20
297.0
  9
$UNITMODE
 70
     0
  9
$VISRETAIN
 70
     1
  9
$PLINEGEN
 70
     0
  9
$PSLTSCALE
 70
     1
  0
ENDSEC
  0
SECTION
  2
TABLES
  0
TABLE
  2
VPORT
 70
     1
  0
VPORT
  2
*ACTIVE
 70
     0
 10
0.0
 20
0.0
 11
1.0
 21
1.0
 12
1348.7168135969950526
 22
3742.0627922980570474
 13
0.0
 23
0.0
 14
10.0
 24
10.0
 15
10.0
 25
10.0
 16
0.0
 26
0.0
 36
1.0
 17
0.0
 27
0.0
 37
0.0
 40
9026.9931413251761114
 41
2.334149326805385
 42
50.0
 43
0.0
 44
0.0
 50
0.0
 51
0.0
 71
     0
 72
   100
 73
     1
 74
     3
 75
     0
 76
     0
 77
     0
 78
     0
  0
ENDTAB
  0
TABLE
  2
LTYPE
 70
     7
  0
LTYPE
  2
CONTINUOUS
 70
     0
  3
CONTINUOUS
 72
    83
 73
     0
 40
0.0
  0
LTYPE
  2
DASHED
 70
     0
  3
DASHED
 72
    83
 73
     2
 40
3.0
 49
2.5
 49
-1.25
  0
LTYPE
  2
CENTER
 70
     0
  3
CENTER
 72
    83
 73
     4
 40
9.0
 49
6.25
 49
-1.25
 49
1.25
 49
-1.25
  0
LTYPE
  2
HIDDEN
 70
     0
  3
HIDDEN
 72
    83
 73
     2
 40
2.0
 49
2.25
 49
-0.625
  0
LTYPE
  2
DASHDOT
 70
     0
  3
DASHDOT
 72
    83
 73
     4
 40
4.0
 49
2.5
 49
-1.25
 49
0.001
 49
-1.25
  0
LTYPE
  2
BORDER
 70
     0
  3
BORDER
 72
    83
 73
     6
 40
7.0
 49
2.5
 49
-1.25
 49
2.5
 49
-1.25
 49
0.001
 49
-1.25
  0
ENDTAB
  0
TABLE
  2
LAYER
 70
     4
  0
LAYER
  2
0
 70
     0
 62
     7
  6
CONTINUOUS
  0
LAYER
  2
DEFAULT
 70
     0
 62
     7
  6
CONTINUOUS
  0
LAYER
  2
Œ¡À¿—“‹_œ≈◊¿“»_¿3__¿4
 70
     0
 62
     7
  6
CONTINUOUS
  0
LAYER
  2
DEFPOINTS
 70
     0
 62
     7
  6
CONTINUOUS
  0
ENDTAB
  0
TABLE
  2
STYLE
 70
     2
  0
STYLE
  2
STANDARD
 70
     0
 40
0.0
 41
1.0
 50
0.0
 71
     0
 42
2.5
  3
txt
  4

  0
STYLE
  2
BCAD_TEXT1
 70
     0
 40
0.2
 41
1.0
 50
0.0
 71
     0
 42
0.2
  3
txt
  4

  0
ENDTAB
  0
TABLE
  2
VIEW
 70
     0
  0
ENDTAB
  0
TABLE
  2
UCS
 70
     0
  0
ENDTAB
  0
TABLE
  2
APPID
 70
     7
  0
APPID
  2
ACAD
 70
     0
  0
APPID
  2
ACAD_MLEADERVER
 70
     0
  0
APPID
  2
ACAD_DSTYLE_DIMRADIAL_EXTENSION
 70
     0
  0
APPID
  2
ACADANNOTATIVE
 70
     0
  0
APPID
  2
ACAD_NAV_VCDISPLAY
 70
     0
  0
APPID
  2
ACAD_TC
 70
     0
  0
APPID
  2
ACAD_EXEMPT_FROM_CAD_STANDARDS
 70
     0
  0
ENDTAB
  0
TABLE
  2
DIMSTYLE
 70
     2
  0
DIMSTYLE
  2
ISO-25
 70
     0
  3

  4

  5

  6

  7

 40
1.0
 41
2.5
 42
0.625
 43
3.75
 44
1.25
 45
0.0
 46
0.0
 47
0.0
 48
0.0
140
2.5
141
2.5
142
0.0
143
0.03937007874016
144
1.0
145
0.0
146
1.0
147
0.625
 71
     0
 72
     0
 73
     0
 74
     0
 75
     0
 76
     0
 77
     1
 78
     8
170
     0
171
     3
172
     1
173
     0
174
     0
175
     0
176
     0
177
     0
178
     0
  0
ENDTAB
  0
ENDSEC
  0
SECTION
  2
BLOCKS
  0
BLOCK
  8
0
  2
$MODEL_SPACE
 70
     0
 10
0.0
 20
0.0
 30
0.0
  3
$MODEL_SPACE
  1

  0
ENDBLK
  5
21
  8
0
  0
BLOCK
 67
     1
  8
0
  2
$PAPER_SPACE
 70
     0
 10
0.0
 20
0.0
 30
0.0
  3
$PAPER_SPACE
  1

  0
ENDBLK
  5
1D
 67
     1
  8
0
  0
BLOCK
  8
0
  2
*D11
 70
     1
 10
0.0
 20
0.0
 30
0.0
  3
*D11
  1

  0
LINE
  5
34B
  8
0
 62
     0
 10
2307.17836927620192
 20
5931.1287916948876955
 30
0.0
 11
2305.575330995504828
 21
5929.2103891639726498
 31
0.0
  0
LINE
  5
34C
  8
0
 62
     0
 10
2376.9573391005651501
 20
6014.6353142325669978
 30
0.0
 11
2329.6209052059489295
 21
5957.986427127701063
 31
0.0
  0
INSERT
  5
34D
  8
0
  2
*U17
 10
0.0
 20
0.0
 30
0.0
  0
LINE
  5
34E
  8
0
 62
     0
 10
2308.7814075568981025
 20
5933.0471942258027411
 30
0.0
 11
2328.0178669252532018
 21
5956.0680245967869268
 31
0.0
  0
SOLID
  5
34F
  8
0
 62
     0
 10
2307.4981030313538213
 20
5930.8616186481058321
 30
0.0
 11
2306.8586355210491092
 21
5931.3959647416713779
 31
0.0
 12
2308.7814075568981025
 22
5933.0471942258027411
 32
0.0
 13
2308.7814075568981025
 23
5933.0471942258027411
 33
0.0
  0
SOLID
  5
350
  8
0
 62
     0
 10
2329.3011714507970282
 20
5958.2536001744847454
 30
0.0
 11
2329.9406389611008308
 21
5957.7192540809191996
 31
0.0
 12
2328.0178669252532018
 22
5956.0680245967869268
 32
0.0
 13
2328.0178669252532018
 23
5956.0680245967869268
 33
0.0
  0
POINT
  5
351
  8
DEFPOINTS
 62
     0
 10
2328.0178669252532018
 20
5956.0680245967869268
 30
0.0
  0
POINT
  5
352
  8
DEFPOINTS
 62
     0
 10
2308.7814075568981025
 20
5933.0471942258027411
 30
0.0
  0
ENDBLK
  5
34A
  8
0
  0
BLOCK
  8
0
  2
*D4
 70
     1
 10
0.0
 20
0.0
 30
0.0
  3
*D4
  1

  0
LINE
  5
42E
  8
0
 62
     0
 10
952.14410400390625
 20
6696.048828125
 30
0.0
 11
952.14410400390625
 21
6742.9462519468333994
 31
0.0
  0
LINE
  5
42F
  8
0
 62
     0
 10
2551.1997070312299911
 20
6695.9501953125
 30
0.0
 11
2551.1997070312299911
 21
6742.9462519468333994
 31
0.0
  0
LINE
  5
430
  8
0
 62
     0
 10
954.64410400390625
 20
6741.6962519468333994
 30
0.0
 11
2548.6997070312299911
 21
6741.6962519468333994
 31
0.0
  0
SOLID
  5
431
  8
0
 62
     0
 10
954.64410400390625
 20
6742.1129186134985503
 30
0.0
 11
954.64410400390625
 21
6741.2795852801646106
 31
0.0
 12
952.14410400390625
 22
6741.6962519468333994
 32
0.0
 13
952.14410400390625
 23
6741.6962519468333994
 33
0.0
  0
SOLID
  5
432
  8
0
 62
     0
 10
2548.6997070312299911
 20
6741.2795852801646106
 30
0.0
 11
2548.6997070312299911
 21
6742.1129186134985503
 31
0.0
 12
2551.1997070312299911
 22
6741.6962519468333994
 32
0.0
 13
2551.1997070312299911
 23
6741.6962519468333994
 33
0.0
  0
INSERT
  5
433
  8
0
  2
*U20
 10
0.0
 20
0.0
 30
0.0
  0
POINT
  5
434
  8
DEFPOINTS
 62
     0
 10
952.14410400390625
 20
6695.423828125
 30
0.0
  0
POINT
  5
435
  8
DEFPOINTS
 62
     0
 10
2551.1997070312299911
 20
6695.3251953125
 30
0.0
  0
POINT
  5
436
  8
DEFPOINTS
 62
     0
 10
2551.1997070312299911
 20
6741.6962519468333994
 30
0.0
  0
ENDBLK
  5
41B
  8
0
  0
BLOCK
  8
0
  2
*D5
 70
     1
 10
0.0
 20
0.0
 30
0.0
  3
*D5
  1

  0
LINE
  5
538
  8
0
 62
     0
 10
-3938.1408794541489442
 20
3985.771871407971048
 30
0.0
 11
-3938.1408794541489442
 21
2987.9377089406630148
 31
0.0
  0
LINE
  5
539
  8
0
 62
     0
 10
-1961.1401470322739442
 20
3169.771627267346048
 30
0.0
 11
-1961.1401470322739442
 21
2987.9377089406630148
 31
0.0
  0
LINE
  5
53A
  8
0
 62
     0
 10
-3935.6408794541498537
 20
2989.1877089406630148
 30
0.0
 11
-1963.6401470322739442
 21
2989.1877089406630148
 31
0.0
  0
SOLID
  5
53B
  8
0
 62
     0
 10
-3935.6408794541498537
 20
2989.6043756073290751
 30
0.0
 11
-3935.6408794541498537
 21
2988.771042273996045
 31
0.0
 12
-3938.1408794541489442
 22
2989.1877089406630148
 32
0.0
 13
-3938.1408794541489442
 23
2989.1877089406630148
 33
0.0
  0
SOLID
  5
53C
  8
0
 62
     0
 10
-1963.6401470322739442
 20
2989.6043756073290751
 30
0.0
 11
-1963.6401470322739442
 21
2988.771042273996045
 31
0.0
 12
-1961.1401470322739442
 22
2989.1877089406630148
 32
0.0
 13
-1961.1401470322739442
 23
2989.1877089406630148
 33
0.0
  0
INSERT
  5
53D
  8
0
  2
*U22
 10
0.0
 20
0.0
 30
0.0
  0
POINT
  5
53E
  8
DEFPOINTS
 62
     0
 10
-3938.1408794541489442
 20
3986.396871407971048
 30
0.0
  0
POINT
  5
53F
  8
DEFPOINTS
 62
     0
 10
-1961.1401470322739442
 20
3170.396627267346048
 30
0.0
  0
POINT
  5
540
  8
DEFPOINTS
 62
     0
 10
-1961.1401470322739442
 20
2989.1877089406630148
 30
0.0
  0
ENDBLK
  5
502
  8
0
  0
BLOCK
  8
0
  2
*D6
 70
     1
 10
0.0
 20
0.0
 30
0.0
  3
*D6
  1

  0
LINE
  5
525
  8
0
 62
     0
 10
-1603.2275390625
 20
3897.865234375
 30
0.0
 11
-1603.2275390625
 21
3959.9549502396330354
 31
0.0
  0
LINE
  5
526
  8
0
 62
     0
 10
546.7519531249997726
 20
3081.904052734375
 30
0.0
 11
546.7519531249997726
 21
3959.9549502396330354
 31
0.0
  0
LINE
  5
527
  8
0
 62
     0
 10
-1600.7275390625
 20
3958.7049502396339449
 30
0.0
 11
544.2519531249997726
 21
3958.7049502396339449
 31
0.0
  0
SOLID
  5
528
  8
0
 62
     0
 10
-1600.7275390625
 20
3959.1216169063000052
 30
0.0
 11
-1600.7275390625
 21
3958.288283572966975
 31
0.0
 12
-1603.2275390625
 22
3958.7049502396339449
 32
0.0
 13
-1603.2275390625
 23
3958.7049502396339449
 33
0.0
  0
SOLID
  5
529
  8
0
 62
     0
 10
544.2519531249997726
 20
3959.1216169063000052
 30
0.0
 11
544.2519531249997726
 21
3958.288283572966975
 31
0.0
 12
546.7519531249997726
 22
3958.7049502396339449
 32
0.0
 13
546.7519531249997726
 23
3958.7049502396339449
 33
0.0
  0
INSERT
  5
52A
  8
0
  2
*U21
 10
0.0
 20
0.0
 30
0.0
  0
POINT
  5
52B
  8
DEFPOINTS
 62
     0
 10
-1603.2275390625
 20
3897.240234375
 30
0.0
  0
POINT
  5
52C
  8
DEFPOINTS
 62
     0
 10
546.7519531249997726
 20
3081.279052734375
 30
0.0
  0
POINT
  5
52D
  8
DEFPOINTS
 62
     0
 10
546.7519531249997726
 20
3958.7049502396339449
 30
0.0
  0
ENDBLK
  5
51A
  8
0
  0
BLOCK
  8
0
  2
*U8
 70
     1
 10
0.0
 20
0.0
 30
0.0
  3
*U8
  1

  0
TEXT
  5
571
  8
DEFAULT
 62
    18
 10
-2398.1672973632807953
 20
6105.815373420715332
 30
0.0
 40
200.0
  1
1
  7
BCAD_TEXT1
  0
ENDBLK
  5
573
  8
0
  0
BLOCK
  8
0
  2
*U9
 70
     1
 10
0.0
 20
0.0
 30
0.0
  3
*U9
  1

  0
TEXT
  5
575
  8
DEFAULT
 62
    18
 10
1763.3250732421879547
 20
6373.341796875
 30
0.0
 40
200.0
  1
2
  7
BCAD_TEXT1
  0
ENDBLK
  5
577
  8
0
  0
BLOCK
  8
0
  2
*U10
 70
     1
 10
0.0
 20
0.0
 30
0.0
  3
*U10
  1

  0
TEXT
  5
579
  8
DEFAULT
 62
    18
 10
5723.1487732091627549
 20
6480.2369296280294293
 30
0.0
 40
200.0
  1
3
  7
BCAD_TEXT1
  0
ENDBLK
  5
57B
  8
0
  0
BLOCK
  8
0
  2
*U11
 70
     1
 10
0.0
 20
0.0
 30
0.0
  3
*U11
  1

  0
TEXT
  5
57D
  8
DEFAULT
 62
    18
 10
-3068.3449810166489442
 20
3728.783834298596048
 30
0.0
 40
200.0
  1
4
  7
BCAD_TEXT1
  0
ENDBLK
  5
57F
  8
0
  0
BLOCK
  8
0
  2
*U12
 70
     1
 10
0.0
 20
0.0
 30
0.0
  3
*U12
  1

  0
TEXT
  5
581
  8
DEFAULT
 62
    18
 10
-626.03253173828125
 20
3691.835693359375
 30
0.0
 40
200.0
  1
5
  7
BCAD_TEXT1
  0
ENDBLK
  5
583
  8
0
  0
BLOCK
  8
0
  2
*U13
 70
     1
 10
0.0
 20
0.0
 30
0.0
  3
*U13
  1

  0
TEXT
  5
585
  8
DEFAULT
 62
    18
 10
2650.20458984375
 20
3785.740478515625
 30
0.0
 40
200.0
  1
6
  7
BCAD_TEXT1
  0
ENDBLK
  5
587
  8
0
  0
BLOCK
  8
0
  2
*U14
 70
     1
 10
0.0
 20
0.0
 30
0.0
  3
*U14
  1

  0
TEXT
  5
589
  8
DEFAULT
 62
    18
 10
6129.4838594578895936
 20
3676.50771475997999
 30
0.0
 40
200.0
  1
7
  7
BCAD_TEXT1
  0
ENDBLK
  5
58B
  8
0
  0
BLOCK
  8
0
  2
*U15
 70
     1
 10
0.0
 20
0.0
 30
0.0
  3
*U15
  1

  0
TEXT
  5
58D
  8
DEFAULT
 62
    18
 10
-831.8447065238578944
 20
1052.0650634765620453
 30
0.0
 40
200.0
  1
8
  7
BCAD_TEXT1
  0
ENDBLK
  5
58F
  8
0
  0
BLOCK
  8
0
  2
*U16
 70
     1
 10
0.0
 20
0.0
 30
0.0
  3
*U16
  1

  0
TEXT
  5
591
  8
DEFAULT
 62
    18
 10
2086.775146484375
 20
1104.2344970703120453
 30
0.0
 40
200.0
  1
9
  7
BCAD_TEXT1
  0
ENDBLK
  5
593
  8
0
  0
BLOCK
  8
0
  2
*U17
 70
     1
 10
0.0
 20
0.0
 30
0.0
  3
*U17
  1

  0
TEXT
  5
5B0
  8
0
 62
     0
 10
2372.0693831959220006
 20
6009.7604668427238721
 30
0.0
 40
2.5
  1
\U+220530
 50
50.1174979177574471
  0
ENDBLK
  5
5B2
  8
0
  0
BLOCK
  8
0
  2
*U18
 70
     1
 10
0.0
 20
0.0
 30
0.0
  3
*U18
  1

  0
TEXT
  5
5B4
  8
0
 62
     0
 10
1744.5885721842450948
 20
7216.2037450340621945
 30
0.0
 40
2.5
  1
1599,06
  0
ENDBLK
  5
5B6
  8
0
  0
BLOCK
  8
0
  2
*U19
 70
     1
 10
0.0
 20
0.0
 30
0.0
  3
*U19
  1

  0
TEXT
  5
5B8
  8
0
 62
     0
 10
1042.5617291281118924
 20
6643.6784472499648473
 30
0.0
 40
2.5
  1
\U+220520,27
 50
13.37834749892186
  0
ENDBLK
  5
5BA
  8
0
  0
BLOCK
  8
0
  2
*U20
 70
     1
 10
0.0
 20
0.0
 30
0.0
  3
*U20
  1

  0
TEXT
  5
5BC
  8
0
 62
     0
 10
1744.5885721842350904
 20
6742.7379186134985503
 30
0.0
 40
2.5
  1
1599,06
  0
ENDBLK
  5
5BE
  8
0
  0
BLOCK
  8
0
  2
*U21
 70
     1
 10
0.0
 20
0.0
 30
0.0
  3
*U21
  1

  0
TEXT
  5
5C4
  8
0
 62
     0
 10
-535.5294596354166288
 20
3959.7466169063009147
 30
0.0
 40
2.5
  1
2149,98
  0
ENDBLK
  5
5C6
  8
0
  0
BLOCK
  8
0
  2
*U22
 70
     1
 10
0.0
 20
0.0
 30
0.0
  3
*U22
  1

  0
TEXT
  5
5CB
  8
0
 62
     0
 10
-2953.8071799098779593
 20
2989.8127089406630148
 30
0.0
 40
2.5
  1
1977
  0
ENDBLK
  5
5CD
  8
0
  0
ENDSEC
  0
SECTION
  2
ENTITIES
  0
TEXT
  5
42
  8
DEFAULT
 62
    18
 10
-3201.164794921875
 20
5658.22509765625
 30
0.0
 40
150.0000000000001137
  1
920
 50
90.0
 41
0.8666666666666664
 51
14.9999777807454606
  0
LINE
  5
65
  8
DEFAULT
 62
    12
 10
-3095.91357421875
 20
5430.19384765625
 30
0.0
 11
-3046.416015625
 21
5380.6962890625
 31
0.0
  0
LINE
  5
66
  8
DEFAULT
 62
    12
 10
-3046.416015625
 20
6300.6962890625
 30
0.0
 11
-3095.91357421875
 21
6350.193359375
 31
0.0
  0
LINE
  5
67
  8
DEFAULT
 62
    12
 10
-3146.164794921875
 20
5405.4448242187509095
 30
0.0
 11
-2994.733154296875
 21
5405.4448242187509095
 31
0.0
  0
LINE
  5
68
  8
DEFAULT
 62
    12
 10
-3146.164794921875
 20
6325.44482421875
 30
0.0
 11
-2994.733154296875
 21
6325.44482421875
 31
0.0
  0
LINE
  5
69
  8
DEFAULT
 62
    12
 10
-3071.164794921875
 20
5815.76171875
 30
0.0
 11
-3071.164794921875
 21
5380.6962890625
 31
0.0
  0
LINE
  5
6A
  8
DEFAULT
 62
    12
 10
-3071.164794921875
 20
5815.76171875
 30
0.0
 11
-3071.164794921875
 21
6350.193359375
 31
0.0
  0
TEXT
  5
6C
  8
DEFAULT
 62
    18
 10
-2557.067626953125
 20
6601.3496093750009095
 30
0.0
 40
150.0000000000001137
  1
1258
 41
0.8666666666666664
 51
14.9999777807454393
  0
LINE
  5
6D
  8
DEFAULT
 62
    12
 10
-2969.984619140625
 20
6476.0986328125
 30
0.0
 11
-3019.48193359375
 21
6426.60107421875
 31
0.0
  0
LINE
  5
6E
  8
DEFAULT
 62
    12
 10
-1761.482177734375
 20
6426.60107421875
 30
0.0
 11
-1711.984619140625
 21
6476.0986328125
 31
0.0
  0
LINE
  5
6F
  8
DEFAULT
 62
    12
 10
-2994.733154296875
 20
6526.349609375
 30
0.0
 11
-2994.733154296875
 21
6325.44482421875
 31
0.0
  0
LINE
  5
70
  8
DEFAULT
 62
    12
 10
-1736.733154296875
 20
6526.349609375
 30
0.0
 11
-1736.733154296875
 21
6325.44482421875
 31
0.0
  0
LINE
  5
71
  8
DEFAULT
 62
    12
 10
-2383.28125
 20
6451.349609375
 30
0.0
 11
-3019.48193359375
 21
6451.349609375
 31
0.0
  0
LINE
  5
72
  8
DEFAULT
 62
    12
 10
-2383.28125
 20
6451.349609375
 30
0.0
 11
-1711.984619140625
 21
6451.349609375
 31
0.0
  0
TEXT
  5
74
  8
DEFAULT
 62
    18
 10
-1636.330322265625
 20
5558.09521484375
 30
0.0
 40
150.0000000000001137
  1
80
 50
90.0
 41
0.8666666666666664
 51
14.9999777807454606
  0
LINE
  5
75
  8
DEFAULT
 62
    12
 10
-1481.581298828125
 20
5380.6962890625
 30
0.0
 11
-1531.078857421875
 21
5430.19384765625
 31
0.0
  0
LINE
  5
76
  8
DEFAULT
 62
    12
 10
-1531.078857421875
 20
5510.19384765625
 30
0.0
 11
-1481.581298828125
 21
5460.6962890625
 31
0.0
  0
LINE
  5
77
  8
DEFAULT
 62
    12
 10
-1431.330322265625
 20
5405.4448242187509095
 30
0.0
 11
-2994.733154296875
 21
5405.4448242187509095
 31
0.0
  0
LINE
  5
78
  8
DEFAULT
 62
    12
 10
-1431.330322265625
 20
5485.44482421875
 30
0.0
 11
-2994.733154296875
 21
5485.44482421875
 31
0.0
  0
LINE
  5
79
  8
DEFAULT
 62
    12
 10
-1506.330322265625
 20
5405.4448242187509095
 30
0.0
 11
-1506.330322265625
 21
5352.94482421875
 31
0.0
  0
LINE
  5
7A
  8
DEFAULT
 62
    12
 10
-1506.330322265625
 20
5405.4448242187509095
 30
0.0
 11
-1506.330322265625
 21
5783.79296875
 31
0.0
  0
TEXT
  5
7C
  8
DEFAULT
 62
    18
 10
-2766.37060546875
 20
5787.36279296875
 30
0.0
 40
150.0000000000001137
  1
150
 41
0.8666666666666664
 51
14.9999777807454393
  0
LINE
  5
7D
  8
DEFAULT
 62
    12
 10
-2869.48193359375
 20
5612.61376953125
 30
0.0
 11
-2819.984375
 21
5662.111328125
 31
0.0
  0
LINE
  5
7E
  8
DEFAULT
 62
    12
 10
-2969.984619140625
 20
5662.111328125
 30
0.0
 11
-3019.48193359375
 21
5612.61376953125
 31
0.0
  0
LINE
  5
7F
  8
DEFAULT
 62
    12
 10
-2994.733154296875
 20
5712.36279296875
 30
0.0
 11
-2994.733154296875
 21
5405.4448242187509095
 31
0.0
  0
LINE
  5
80
  8
DEFAULT
 62
    12
 10
-2844.733154296875
 20
5712.36279296875
 30
0.0
 11
-2844.733154296875
 21
5405.4448242187509095
 31
0.0
  0
LINE
  5
81
  8
DEFAULT
 62
    12
 10
-3019.48193359375
 20
5637.36279296875
 30
0.0
 11
-2844.733154296875
 21
5637.36279296875
 31
0.0
  0
LINE
  5
82
  8
DEFAULT
 62
    12
 10
-2500.047607421875
 20
5637.36279296875
 30
0.0
 11
-2844.733154296875
 21
5637.36279296875
 31
0.0
  0
LINE
  5
84
  8
DEFAULT
 62
    12
 10
-1736.733154296875
 20
5708.70556640625
 30
0.0
 11
-1736.733154296875
 21
5405.4448242187509095
 31
0.0
  0
TEXT
  5
86
  8
DEFAULT
 62
    18
 10
-2739.141845703125
 20
6079.92333984375
 30
0.0
 40
150.0000000000001137
  1
628
 41
0.8666666666666664
 51
14.9999777807454393
  0
LINE
  5
87
  8
DEFAULT
 62
    12
 10
-2969.984619140625
 20
5954.67236328125
 30
0.0
 11
-3019.48193359375
 21
5905.1748046875
 31
0.0
  0
LINE
  5
88
  8
DEFAULT
 62
    12
 10
-2391.48193359375
 20
5905.1748046875
 30
0.0
 11
-2341.984375
 21
5954.67236328125
 31
0.0
  0
LINE
  5
89
  8
DEFAULT
 62
    12
 10
-2994.733154296875
 20
6004.92333984375
 30
0.0
 11
-2994.733154296875
 21
5405.4448242187509095
 31
0.0
  0
LINE
  5
8A
  8
DEFAULT
 62
    12
 10
-2366.733154296875
 20
6004.92333984375
 30
0.0
 11
-2366.733154296875
 21
5405.4448242187509095
 31
0.0
  0
LINE
  5
8B
  8
DEFAULT
 62
    12
 10
-2585.66796875
 20
5929.92333984375
 30
0.0
 11
-3019.48193359375
 21
5929.92333984375
 31
0.0
  0
LINE
  5
8C
  8
DEFAULT
 62
    12
 10
-2585.66796875
 20
5929.92333984375
 30
0.0
 11
-2341.984375
 21
5929.92333984375
 31
0.0
  0
CIRCLE
  5
8D
  8
DEFAULT
  6
CONTINUOUS
 62
    18
 10
-2844.7332229614257812
 20
5485.4449052810668945
 30
0.0
 40
15.0
  0
CIRCLE
  5
8E
  8
DEFAULT
  6
CONTINUOUS
 62
    18
 10
-2366.7332153320307953
 20
5485.4449052810668945
 30
0.0
 40
15.0
  0
TEXT
  5
90
  8
DEFAULT
 62
    18
 10
-2297.867919921875
 20
5801.99072265625
 30
0.0
 40
150.0000000000001137
  1
155
 41
0.8666666666666664
 51
14.9999777807454393
  0
LINE
  5
91
  8
DEFAULT
 62
    12
 10
-1761.482177734375
 20
5627.2421875
 30
0.0
 11
-1711.984619140625
 21
5676.7392578124990905
 31
0.0
  0
LINE
  5
92
  8
DEFAULT
 62
    12
 10
-1866.984619140625
 20
5676.7392578124990905
 30
0.0
 11
-1916.482177734375
 21
5627.2421875
 31
0.0
  0
LINE
  5
93
  8
DEFAULT
 62
    12
 10
-1736.733154296875
 20
5726.99072265625
 30
0.0
 11
-1736.733154296875
 21
5405.4448242187509095
 31
0.0
  0
LINE
  5
94
  8
DEFAULT
 62
    12
 10
-1891.7333984375
 20
5726.99072265625
 30
0.0
 11
-1891.7333984375
 21
5405.4448242187509095
 31
0.0
  0
LINE
  5
95
  8
DEFAULT
 62
    12
 10
-1891.7333984375
 20
5651.99072265625
 30
0.0
 11
-2297.867919921875
 21
5651.99072265625
 31
0.0
  0
LINE
  5
96
  8
DEFAULT
 62
    12
 10
-1891.7333984375
 20
5651.99072265625
 30
0.0
 11
-1711.984619140625
 21
5651.99072265625
 31
0.0
  0
CIRCLE
  5
97
  8
DEFAULT
  6
CONTINUOUS
 62
    18
 10
-1891.7333374023439774
 20
5485.4449052810668945
 30
0.0
 40
15.0
  0
INSERT
  5
98
  8
0
  2
*U8
 10
0.0
 20
0.0
 30
0.0
  0
LINE
  5
9B
  8
DEFAULT
 62
    12
 10
-3041.3017578125
 20
2406.236572265625
 30
0.0
 11
-3108.2470703125
 21
2385.786865234375
 31
0.0
  0
TEXT
  5
9D
  8
DEFAULT
 62
    18
 10
-1593.530517578125
 20
6592.1796874999990905
 30
0.0
 40
150.0
  1
70
 50
90.0
 41
0.8666666666666667
 51
14.9999777807453896
  0
LINE
  5
9E
  8
DEFAULT
 62
    12
 10
-1438.781982421875
 20
6230.6962890625
 30
0.0
 11
-1488.279052734375
 21
6280.193359375
 31
0.0
  0
LINE
  5
9F
  8
DEFAULT
 62
    12
 10
-1488.279052734375
 20
6350.193359375
 30
0.0
 11
-1438.781982421875
 21
6300.6962890625
 31
0.0
  0
LINE
  5
A0
  8
DEFAULT
 62
    12
 10
-1388.530517578125
 20
6325.44482421875
 30
0.0
 11
-1736.733154296875
 21
6325.44482421875
 31
0.0
  0
LINE
  5
A1
  8
DEFAULT
 62
    12
 10
-1388.530517578125
 20
6255.44482421875
 30
0.0
 11
-1736.733154296875
 21
6255.44482421875
 31
0.0
  0
LINE
  5
A2
  8
DEFAULT
 62
    12
 10
-1463.530517578125
 20
6255.44482421875
 30
0.0
 11
-1463.530517578125
 21
6202.94482421875
 31
0.0
  0
LINE
  5
A3
  8
DEFAULT
 62
    12
 10
-1463.530517578125
 20
6255.44482421875
 30
0.0
 11
-1463.530517578125
 21
6809.7529296874990905
 31
0.0
  0
LINE
  5
A4
  8
DEFAULT
  6
CONTINUOUS
 62
    18
 10
-2386.1198833603989442
 20
3986.357808907971048
 30
0.0
 11
-3938.1408794541489442
 21
3986.396871407971048
 31
0.0
  0
LINE
  5
A5
  8
DEFAULT
  6
CONTINUOUS
 62
    18
 10
-1961.1401470322739442
 20
3170.396627267346048
 30
0.0
 11
-3513.1408794541489442
 21
3170.396627267346048
 31
0.0
  0
LINE
  5
A6
  8
DEFAULT
  6
CONTINUOUS
 62
    18
 10
-2386.1198833603989442
 20
3986.357808907971048
 30
0.0
 11
-1961.1401470322739442
 21
3170.396627267346048
 31
0.0
  0
LINE
  5
A7
  8
DEFAULT
  6
CONTINUOUS
 62
    18
 10
121.751953125
 20
3897.2790527343759095
 30
0.0
 11
-1603.2275390625
 21
3897.240234375
 31
0.0
  0
LINE
  5
A8
  8
DEFAULT
  6
CONTINUOUS
 62
    18
 10
-1603.2275390625
 20
3897.240234375
 30
0.0
 11
-1178.248046875
 21
3081.279052734375
 31
0.0
  0
LINE
  5
A9
  8
DEFAULT
  6
CONTINUOUS
 62
    18
 10
-1178.248046875
 20
3081.279052734375
 30
0.0
 11
546.7519531249997726
 21
3081.279052734375
 31
0.0
  0
CIRCLE
  5
AA
  8
DEFAULT
  6
CONTINUOUS
 62
    18
 10
-3350.6279745019542133
 20
3228.9328572239078312
 30
0.0
 40
15.0
  0
CIRCLE
  5
AB
  8
DEFAULT
  6
CONTINUOUS
 62
    18
 10
-2668.6284315945758863
 20
3228.9327711141190775
 30
0.0
 40
15.0
  0
CIRCLE
  5
AC
  8
DEFAULT
  6
CONTINUOUS
 62
    18
 10
-541.7359847412936915
 20
3139.8151880228688242
 30
0.0
 40
15.0
  0
CIRCLE
  5
AD
  8
DEFAULT
  6
CONTINUOUS
 62
    18
 10
126.2643265943925002
 20
3139.8153202123930896
 30
0.0
 40
15.0
  0
LINE
  5
AE
  8
DEFAULT
  6
CONTINUOUS
 62
    18
 10
546.7519531249997726
 20
3081.279052734375
 30
0.0
 11
121.751953125
 21
3897.2790527343759095
 31
0.0
  0
LINE
  5
AF
  8
DEFAULT
  6
CONTINUOUS
 62
    18
 10
-3513.1408794541489442
 20
3170.396627267346048
 30
0.0
 11
-3938.1408794541489442
 21
3986.396871407971048
 31
0.0
  0
TEXT
  5
B1
  8
DEFAULT
 62
    18
 10
-3400.7634380478998537
 20
4235.197164376721048
 30
0.0
 40
149.9999999999998863
  1
1552
 41
0.8666666666666671
 51
14.9999777807452794
  0
LINE
  5
B2
  8
DEFAULT
 62
    12
 10
-3913.3918560166489442
 20
4109.9456995329701385
 30
0.0
 11
-3962.8894146103998537
 21
4060.448385079846048
 31
0.0
  0
LINE
  5
B3
  8
DEFAULT
 62
    12
 10
-2410.8686626572748537
 20
4060.448385079846048
 30
0.0
 11
-2361.3711040635248537
 21
4109.9456995329701385
 31
0.0
  0
LINE
  5
B4
  8
DEFAULT
 62
    12
 10
-3938.1408794541489442
 20
4160.197164376721048
 30
0.0
 11
-3938.1408794541489442
 21
3986.396871407971048
 31
0.0
  0
LINE
  5
B5
  8
DEFAULT
 62
    12
 10
-2386.1198833603989442
 20
4160.197164376721048
 30
0.0
 11
-2386.1198833603989442
 21
3986.357808907971048
 31
0.0
  0
LINE
  5
B6
  8
DEFAULT
 62
    12
 10
-3226.9768169541489442
 20
4085.197164376721048
 30
0.0
 11
-3962.8894146103998537
 21
4085.197164376721048
 31
0.0
  0
LINE
  5
B7
  8
DEFAULT
 62
    12
 10
-3226.9768169541489442
 20
4085.197164376721048
 30
0.0
 11
-2361.3711040635248537
 21
4085.197164376721048
 31
0.0
  0
TEXT
  5
D1
  8
DEFAULT
 62
    18
 10
-4220.407969297899399
 20
3351.839010079846048
 30
0.0
 40
150.0000000000001137
  1
816
 50
90.0
 41
0.8666666666666664
 51
14.9999777807454606
  0
LINE
  5
D2
  8
DEFAULT
 62
    12
 10
-4115.156748594774399
 20
3195.145406564221048
 30
0.0
 11
-4065.6591900010248537
 21
3145.647847970471048
 31
0.0
  0
LINE
  5
D3
  8
DEFAULT
 62
    12
 10
-4065.6591900010248537
 20
3961.648092111096048
 30
0.0
 11
-4115.156748594774399
 21
4011.145406564221048
 31
0.0
  0
LINE
  5
D4
  8
DEFAULT
 62
    12
 10
-4165.407969297899399
 20
3986.396871407971048
 30
0.0
 11
-3938.1408794541489442
 21
3986.396871407971048
 31
0.0
  0
LINE
  5
D5
  8
DEFAULT
 62
    12
 10
-4165.407969297899399
 20
3170.396627267346048
 30
0.0
 11
-3513.1408794541489442
 21
3170.396627267346048
 31
0.0
  0
LINE
  5
D6
  8
DEFAULT
 62
    12
 10
-4090.4079692978989442
 20
3480.937887032971048
 30
0.0
 11
-4090.4079692978989442
 21
3145.647847970471048
 31
0.0
  0
LINE
  5
D7
  8
DEFAULT
 62
    12
 10
-4090.4079692978989442
 20
3480.937887032971048
 30
0.0
 11
-4090.4079692978989442
 21
4011.145406564221048
 31
0.0
  0
TEXT
  5
F1
  8
DEFAULT
 62
    18
 10
-236.673583984375
 20
3036.75244140625
 30
0.0
 40
149.9999999999998863
  1
420
 41
0.8666666666666671
 51
14.9999777807452794
  0
LINE
  5
F2
  8
DEFAULT
 62
    12
 10
522.00341796875
 20
2862.00390625
 30
0.0
 11
571.5004882812498863
 21
2911.501220703125
 31
0.0
  0
LINE
  5
F3
  8
DEFAULT
 62
    12
 10
151.0126953125
 20
2911.501220703125
 30
0.0
 11
101.515625
 21
2862.00390625
 31
0.0
  0
LINE
  5
F4
  8
DEFAULT
 62
    12
 10
546.7519531249997726
 20
2811.75244140625
 30
0.0
 11
546.7519531249997726
 21
3081.279052734375
 31
0.0
  0
LINE
  5
F5
  8
DEFAULT
 62
    12
 10
126.26416015625
 20
2811.75244140625
 30
0.0
 11
126.26416015625
 21
3139.8154296875
 31
0.0
  0
LINE
  5
F6
  8
DEFAULT
 62
    12
 10
126.26416015625
 20
2886.75244140625
 30
0.0
 11
-236.673583984375
 21
2886.75244140625
 31
0.0
  0
LINE
  5
F7
  8
DEFAULT
 62
    12
 10
126.26416015625
 20
2886.75244140625
 30
0.0
 11
571.5004882812498863
 21
2886.75244140625
 31
0.0
  0
LINE
  5
100
  8
DEFAULT
  6
CONTINUOUS
 62
    18
 10
6919.8554414891395936
 20
3906.99990225997999
 30
0.0
 11
5238.5351289891423221
 21
3907.5628905412308995
 31
0.0
  0
LINE
  5
101
  8
DEFAULT
  6
CONTINUOUS
 62
    18
 10
2228.599609375
 20
3247.534423828125
 30
0.0
 11
3934.599609375
 21
3247.534423828125
 31
0.0
  0
LINE
  5
102
  8
DEFAULT
  6
CONTINUOUS
 62
    18
 10
3481.28125
 20
4048.097900390625
 30
0.0
 11
3934.599609375
 21
3247.534423828125
 31
0.0
  0
LINE
  5
103
  8
DEFAULT
  6
CONTINUOUS
 62
    18
 10
5238.5351289891423221
 20
3907.5628905412308995
 30
0.0
 11
5691.8554414891395936
 21
3106.99941397872999
 31
0.0
  0
LINE
  5
104
  8
DEFAULT
  6
CONTINUOUS
 62
    18
 10
5691.8554414891395936
 20
3106.99941397872999
 30
0.0
 11
7372.8554414891395936
 21
3106.9999022599808995
 31
0.0
  0
CIRCLE
  5
105
  8
DEFAULT
  6
CONTINUOUS
 62
    18
 10
7166.8281340461953732
 20
3163.5617128009130283
 30
0.0
 40
15.0
  0
CIRCLE
  5
106
  8
DEFAULT
  6
CONTINUOUS
 62
    18
 10
3054.5719676022818021
 20
3304.0959768929151323
 30
0.0
 40
15.0
  0
CIRCLE
  5
107
  8
DEFAULT
  6
CONTINUOUS
 62
    18
 10
2361.5718827283308201
 20
3304.0960258160921512
 30
0.0
 40
15.0
  0
CIRCLE
  5
108
  8
DEFAULT
  6
CONTINUOUS
 62
    18
 10
3728.5721243479670193
 20
3304.0961529032788349
 30
0.0
 40
15.0
  0
CIRCLE
  5
109
  8
DEFAULT
  6
CONTINUOUS
 62
    18
 10
5832.8269997748939204
 20
3163.5610906618189802
 30
0.0
 40
15.0
  0
CIRCLE
  5
10A
  8
DEFAULT
  6
CONTINUOUS
 62
    18
 10
6495.8269376730895601
 20
3163.5610223774519909
 30
0.0
 40
15.0
  0
LINE
  5
10B
  8
DEFAULT
  6
CONTINUOUS
 62
    18
 10
7372.8554414891395936
 20
3106.9999022599808995
 30
0.0
 11
6919.8554414891395936
 21
3906.99990225997999
 31
0.0
  0
LINE
  5
10C
  8
DEFAULT
  6
CONTINUOUS
 62
    18
 10
2228.599609375
 20
3247.534423828125
 30
0.0
 11
1775.599609375
 21
4047.534423828125
 31
0.0
  0
LINE
  5
10D
  8
DEFAULT
  6
CONTINUOUS
 62
    18
 10
2740.4892578125
 20
1331.17236328125
 30
0.0
 11
1067.3798828125
 21
1331.38037109375
 31
0.0
  0
LINE
  5
10E
  8
DEFAULT
  6
CONTINUOUS
 62
    18
 10
-1839.3717145804980646
 20
1331.17236328125
 30
0.0
 11
-87.3726911429985194
 21
1331.17236328125
 31
0.0
  0
LINE
  5
10F
  8
DEFAULT
  6
CONTINUOUS
 62
    18
 10
344.6273088570014806
 20
519.172119140625
 30
0.0
 11
-1407.3717145804980646
 21
519.1723632812497726
 31
0.0
  0
LINE
  5
110
  8
DEFAULT
  6
CONTINUOUS
 62
    18
 10
1067.3798828125
 20
1331.38037109375
 30
0.0
 11
1499.490234375
 21
519.1728515624998863
 31
0.0
  0
LINE
  5
111
  8
DEFAULT
  6
CONTINUOUS
 62
    18
 10
-87.4830427054985051
 20
1331.37939453125
 30
0.0
 11
344.6273088570014806
 21
519.172119140625
 31
0.0
  0
LINE
  5
112
  8
DEFAULT
  6
CONTINUOUS
 62
    18
 10
1499.490234375
 20
519.1728515624998863
 30
0.0
 11
3172.4892578125
 21
519.1723632812497726
 31
0.0
  0
CIRCLE
  5
113
  8
DEFAULT
  6
CONTINUOUS
 62
    18
 10
161.0385457358374879
 20
574.7912725565691971
 30
0.0
 40
15.0
  0
CIRCLE
  5
114
  8
DEFAULT
  6
CONTINUOUS
 62
    18
 10
2311.899470100112012
 20
574.7909312461282525
 30
0.0
 40
15.0
  0
CIRCLE
  5
115
  8
DEFAULT
  6
CONTINUOUS
 62
    18
 10
3002.8983378697162152
 20
574.790452306748648
 30
0.0
 40
15.0
  0
CIRCLE
  5
116
  8
DEFAULT
  6
CONTINUOUS
 62
    18
 10
-524.9620439403241789
 20
574.7906001798427269
 30
0.0
 40
15.0
  0
CIRCLE
  5
117
  8
DEFAULT
  6
CONTINUOUS
 62
    18
 10
1624.8986506098140126
 20
574.7907367332271633
 30
0.0
 40
15.0
  0
CIRCLE
  5
118
  8
DEFAULT
  6
CONTINUOUS
 62
    18
 10
-1202.9613642020649422
 20
574.7913329592711307
 30
0.0
 40
15.0
  0
LINE
  5
119
  8
DEFAULT
  6
CONTINUOUS
 62
    18
 10
3172.4892578125
 20
519.1723632812497726
 30
0.0
 11
2740.4892578125
 21
1331.17236328125
 31
0.0
  0
LINE
  5
11A
  8
DEFAULT
  6
CONTINUOUS
 62
    18
 10
-1407.3717145804980646
 20
519.1723632812497726
 30
0.0
 11
-1839.3717145804980646
 21
1331.17236328125
 31
0.0
  0
TEXT
  5
11C
  8
DEFAULT
 62
    18
 10
2555.078125
 20
4281.091796874998181
 30
0.0
 40
149.9999999999998863
  1
1706
 41
0.8666666666666671
 51
14.9999777807452794
  0
LINE
  5
11D
  8
DEFAULT
 62
    12
 10
1800.34814453125
 20
4155.84033203125
 30
0.0
 11
1750.85107421875
 21
4106.34326171875
 31
0.0
  0
LINE
  5
11E
  8
DEFAULT
 62
    12
 10
3456.5327148437509095
 20
4106.34326171875
 30
0.0
 11
3506.02978515625
 21
4155.84033203125
 31
0.0
  0
LINE
  5
11F
  8
DEFAULT
 62
    12
 10
1775.599609375
 20
4206.0917968749990905
 30
0.0
 11
1775.599609375
 21
4047.534423828125
 31
0.0
  0
LINE
  5
120
  8
DEFAULT
 62
    12
 10
3481.28125
 20
4206.0917968749990905
 30
0.0
 11
3481.28125
 21
4048.097900390625
 31
0.0
  0
LINE
  5
121
  8
DEFAULT
 62
    12
 10
2728.86474609375
 20
4131.091796875
 30
0.0
 11
1750.85107421875
 21
4131.091796875
 31
0.0
  0
LINE
  5
122
  8
DEFAULT
 62
    12
 10
2728.86474609375
 20
4131.091796875
 30
0.0
 11
3506.02978515625
 21
4131.091796875
 31
0.0
  0
TEXT
  5
124
  8
DEFAULT
 62
    18
 10
6091.3056368016395936
 20
4171.3287596818554448
 30
0.0
 40
149.9999999999998863
  1
1681
 41
0.8666666666666671
 51
14.9999777807452794
  0
LINE
  5
125
  8
DEFAULT
 62
    12
 10
5263.2836641453895936
 20
4046.07729483810499
 30
0.0
 11
5213.7865938328914126
 21
3996.58022452560499
 31
0.0
  0
LINE
  5
126
  8
DEFAULT
 62
    12
 10
6895.1064180516414126
 20
3996.58022452560499
 30
0.0
 11
6944.6044649266414126
 21
4046.07729483810499
 31
0.0
  0
LINE
  5
127
  8
DEFAULT
 62
    12
 10
5238.5351289891423221
 20
4096.3287596818554448
 30
0.0
 11
5238.5351289891423221
 21
3907.5628905412308995
 31
0.0
  0
LINE
  5
128
  8
DEFAULT
 62
    12
 10
6919.8554414891395936
 20
4096.3287596818554448
 30
0.0
 11
6919.8554414891395936
 21
3906.99990225997999
 31
0.0
  0
LINE
  5
129
  8
DEFAULT
 62
    12
 10
6240.7167696141414126
 20
4021.32875968185499
 30
0.0
 11
5213.7865938328914126
 21
4021.32875968185499
 31
0.0
  0
LINE
  5
12A
  8
DEFAULT
 62
    12
 10
6240.7167696141414126
 20
4021.32875968185499
 30
0.0
 11
6944.6044649266414126
 21
4021.32875968185499
 31
0.0
  0
TEXT
  5
12C
  8
DEFAULT
 62
    18
 10
2760.1455078125
 20
2993.555419921875
 30
0.0
 40
149.9999999999998863
  1
2159
 41
0.8666666666666671
 51
14.9999777807452794
  0
LINE
  5
12D
  8
DEFAULT
 62
    12
 10
1800.34814453125
 20
2868.30419921875
 30
0.0
 11
1750.85107421875
 21
2818.806640625
 31
0.0
  0
LINE
  5
12E
  8
DEFAULT
 62
    12
 10
3909.8505859375
 20
2818.806640625
 30
0.0
 11
3959.348632812501819
 21
2868.30419921875
 31
0.0
  0
LINE
  5
12F
  8
DEFAULT
 62
    12
 10
1775.599609375
 20
2768.555419921875
 30
0.0
 11
1775.599609375
 21
4047.534423828125
 31
0.0
  0
LINE
  5
130
  8
DEFAULT
 62
    12
 10
3934.599609375
 20
2768.555419921875
 30
0.0
 11
3934.599609375
 21
3247.534423828125
 31
0.0
  0
LINE
  5
131
  8
DEFAULT
 62
    12
 10
2933.93212890625
 20
2843.555419921875
 30
0.0
 11
1750.85107421875
 21
2843.555419921875
 31
0.0
  0
LINE
  5
132
  8
DEFAULT
 62
    12
 10
2933.93212890625
 20
2843.555419921875
 30
0.0
 11
3959.348632812501819
 21
2843.555419921875
 31
0.0
  0
TEXT
  5
134
  8
DEFAULT
 62
    18
 10
6749.0341524266395936
 20
4538.1847167131054448
 30
0.0
 40
149.9999999999998863
  1
2134
 41
0.8666666666666671
 51
14.9999777807452794
  0
LINE
  5
135
  8
DEFAULT
 62
    12
 10
5263.2836641453895936
 20
4412.9332518693554448
 30
0.0
 11
5213.7865938328914126
 21
4363.4361815568554448
 31
0.0
  0
LINE
  5
136
  8
DEFAULT
 62
    12
 10
7348.1064180516414126
 20
4363.4361815568554448
 30
0.0
 11
7397.6044649266414126
 21
4412.9332518693554448
 31
0.0
  0
LINE
  5
137
  8
DEFAULT
 62
    12
 10
5238.5351289891423221
 20
4463.1847167131036258
 30
0.0
 11
5238.5351289891423221
 21
3907.5628905412308995
 31
0.0
  0
LINE
  5
138
  8
DEFAULT
 62
    12
 10
7372.8554414891395936
 20
4463.1847167131036258
 30
0.0
 11
7372.8554414891395936
 21
3106.9999022599808995
 31
0.0
  0
LINE
  5
139
  8
DEFAULT
 62
    12
 10
6922.8202852391395936
 20
4388.1847167131054448
 30
0.0
 11
5213.7865938328914126
 21
4388.1847167131054448
 31
0.0
  0
LINE
  5
13A
  8
DEFAULT
 62
    12
 10
6922.8202852391395936
 20
4388.1847167131054448
 30
0.0
 11
7397.6044649266414126
 21
4388.1847167131054448
 31
0.0
  0
TEXT
  5
13C
  8
DEFAULT
 62
    18
 10
7465.3896211766395936
 20
3247.1493163224808995
 30
0.0
 40
150.0000000000001137
  1
57
 50
90.0
 41
0.8666666666666664
 51
14.9999777807454606
  0
LINE
  5
13D
  8
DEFAULT
 62
    12
 10
7620.1386446141414126
 20
3082.2513671037308995
 30
0.0
 11
7570.6405977391414126
 21
3131.7484374162308995
 31
0.0
  0
LINE
  5
13E
  8
DEFAULT
 62
    12
 10
7570.6405977391414126
 20
3188.3099608537308995
 30
0.0
 11
7620.1386446141414126
 21
3138.8128905412308995
 31
0.0
  0
LINE
  5
13F
  8
DEFAULT
 62
    12
 10
7670.3896211766395936
 20
3106.9999022599808995
 30
0.0
 11
3975.8554414891409579
 21
3106.9999022599808995
 31
0.0
  0
LINE
  5
140
  8
DEFAULT
 62
    12
 10
7670.3896211766395936
 20
3163.56142569747999
 30
0.0
 11
4108.8276094578914126
 21
3163.56142569747999
 31
0.0
  0
LINE
  5
141
  8
DEFAULT
 62
    12
 10
7595.3896211766395936
 20
3106.9999022599808995
 30
0.0
 11
7595.3896211766395936
 21
3054.49990225997999
 31
0.0
  0
LINE
  5
142
  8
DEFAULT
 62
    12
 10
7595.3896211766395936
 20
3106.9999022599808995
 30
0.0
 11
7595.3896211766395936
 21
3456.5975585099808995
 31
0.0
  0
TEXT
  5
144
  8
DEFAULT
 62
    18
 10
2376.52734375
 20
3262.078857421875
 30
0.0
 40
149.9999999999998863
  1
133
 41
0.8666666666666671
 51
14.9999777807452794
  0
LINE
  5
145
  8
DEFAULT
 62
    12
 10
2336.8232421875
 20
3087.330322265625
 30
0.0
 11
2386.3203125
 21
3136.827392578125
 31
0.0
  0
LINE
  5
146
  8
DEFAULT
 62
    12
 10
2253.34814453125
 20
3136.827392578125
 30
0.0
 11
2203.85107421875
 21
3087.330322265625
 31
0.0
  0
LINE
  5
147
  8
DEFAULT
 62
    12
 10
2228.599609375
 20
3037.078857421875
 30
0.0
 11
2228.599609375
 21
3247.534423828125
 31
0.0
  0
LINE
  5
148
  8
DEFAULT
 62
    12
 10
2361.57177734375
 20
3037.078857421875
 30
0.0
 11
2361.57177734375
 21
3304.095947265625
 31
0.0
  0
LINE
  5
149
  8
DEFAULT
 62
    12
 10
2203.85107421875
 20
3112.078857421875
 30
0.0
 11
2361.57177734375
 21
3112.078857421875
 31
0.0
  0
LINE
  5
14A
  8
DEFAULT
 62
    12
 10
2634.7255859375
 20
3112.078857421875
 30
0.0
 11
2361.57177734375
 21
3112.078857421875
 31
0.0
  0
TEXT
  5
14C
  8
DEFAULT
 62
    18
 10
2722.2451171875
 20
3235.283447265625
 30
0.0
 40
149.9999999999998863
  1
826
 41
0.8666666666666671
 51
14.9999777807452794
  0
LINE
  5
14D
  8
DEFAULT
 62
    12
 10
2253.34814453125
 20
3110.031982421875
 30
0.0
 11
2203.85107421875
 21
3060.534912109375
 31
0.0
  0
LINE
  5
14E
  8
DEFAULT
 62
    12
 10
3029.8232421875
 20
3060.534912109375
 30
0.0
 11
3079.3203125
 21
3110.031982421875
 31
0.0
  0
LINE
  5
14F
  8
DEFAULT
 62
    12
 10
2228.599609375
 20
3010.283447265625
 30
0.0
 11
2228.599609375
 21
3247.534423828125
 31
0.0
  0
LINE
  5
150
  8
DEFAULT
 62
    12
 10
3054.57177734375
 20
3010.283447265625
 30
0.0
 11
3054.57177734375
 21
3304.095947265625
 31
0.0
  0
LINE
  5
151
  8
DEFAULT
 62
    12
 10
2875.71923828125
 20
3085.283447265625
 30
0.0
 11
2203.85107421875
 21
3085.283447265625
 31
0.0
  0
LINE
  5
152
  8
DEFAULT
 62
    12
 10
2875.71923828125
 20
3085.283447265625
 30
0.0
 11
3079.3203125
 21
3085.283447265625
 31
0.0
  0
TEXT
  5
154
  8
DEFAULT
 62
    18
 10
2836.9658203125
 20
3531.458251953125
 30
0.0
 40
149.9999999999998863
  1
1500
 41
0.8666666666666671
 51
14.9999777807452794
  0
LINE
  5
155
  8
DEFAULT
 62
    12
 10
2253.34814453125
 20
3406.206787109375
 30
0.0
 11
2203.85107421875
 21
3356.7097167968759095
 31
0.0
  0
LINE
  5
156
  8
DEFAULT
 62
    12
 10
3703.8232421875
 20
3356.7097167968759095
 30
0.0
 11
3753.3212890625
 21
3406.206787109375
 31
0.0
  0
LINE
  5
157
  8
DEFAULT
 62
    12
 10
2228.599609375
 20
3456.458251953125
 30
0.0
 11
2228.599609375
 21
3247.534423828125
 31
0.0
  0
LINE
  5
158
  8
DEFAULT
 62
    12
 10
3728.572265625
 20
3456.458251953125
 30
0.0
 11
3728.572265625
 21
3304.095947265625
 31
0.0
  0
LINE
  5
159
  8
DEFAULT
 62
    12
 10
3018.87744140625
 20
3381.458251953125
 30
0.0
 11
2203.85107421875
 21
3381.458251953125
 31
0.0
  0
LINE
  5
15A
  8
DEFAULT
 62
    12
 10
3018.87744140625
 20
3381.458251953125
 30
0.0
 11
3753.3212890625
 21
3381.458251953125
 31
0.0
  0
TEXT
  5
15C
  8
DEFAULT
 62
    18
 10
5901.3232149266414126
 20
3119.52041007247999
 30
0.0
 40
149.9999999999998863
  1
141
 41
0.8666666666666671
 51
14.9999777807452794
  0
LINE
  5
15D
  8
DEFAULT
 62
    12
 10
5808.0780977391414126
 20
2944.7718749162308995
 30
0.0
 11
5857.5761446141395936
 21
2994.2689452287308995
 31
0.0
  0
LINE
  5
15E
  8
DEFAULT
 62
    12
 10
5716.6044649266395936
 20
2994.2689452287308995
 30
0.0
 11
5667.1064180516423221
 21
2944.7718749162308995
 31
0.0
  0
LINE
  5
15F
  8
DEFAULT
 62
    12
 10
5691.8554414891395936
 20
2894.5204100724808995
 30
0.0
 11
5691.8554414891395936
 21
3106.99941397872999
 31
0.0
  0
LINE
  5
160
  8
DEFAULT
 62
    12
 10
5832.8271211766414126
 20
2894.5204100724808995
 30
0.0
 11
5832.8271211766414126
 21
3163.56093741622999
 31
0.0
  0
LINE
  5
161
  8
DEFAULT
 62
    12
 10
5667.1064180516423221
 20
2969.5204100724808995
 30
0.0
 11
5832.8271211766414126
 21
2969.5204100724808995
 31
0.0
  0
LINE
  5
162
  8
DEFAULT
 62
    12
 10
6110.7704805516395936
 20
2969.5204100724808995
 30
0.0
 11
5832.8271211766414126
 21
2969.5204100724808995
 31
0.0
  0
TEXT
  5
164
  8
DEFAULT
 62
    18
 10
6791.0761446141414126
 20
3103.6063475724808995
 30
0.0
 40
149.9999999999998863
  1
206
 41
0.8666666666666671
 51
14.9999777807452794
  0
LINE
  5
165
  8
DEFAULT
 62
    12
 10
7348.1064180516414126
 20
2928.8578124162308995
 30
0.0
 11
7397.6044649266414126
 21
2978.35488272872999
 31
0.0
  0
LINE
  5
166
  8
DEFAULT
 62
    12
 10
7191.5771211766414126
 20
2978.35488272872999
 30
0.0
 11
7142.0790743016395936
 21
2928.8578124162308995
 31
0.0
  0
LINE
  5
167
  8
DEFAULT
 62
    12
 10
7372.8554414891395936
 20
2878.60634757247999
 30
0.0
 11
7372.8554414891395936
 21
3106.9999022599808995
 31
0.0
  0
LINE
  5
168
  8
DEFAULT
 62
    12
 10
7166.8280977391395936
 20
2878.60634757247999
 30
0.0
 11
7166.8280977391395936
 21
3163.56191397872999
 31
0.0
  0
LINE
  5
169
  8
DEFAULT
 62
    12
 10
7166.8280977391395936
 20
2953.606347572481809
 30
0.0
 11
6791.0761446141414126
 21
2953.606347572481809
 31
0.0
  0
LINE
  5
16A
  8
DEFAULT
 62
    12
 10
7166.8280977391395936
 20
2953.606347572481809
 30
0.0
 11
7397.6044649266414126
 21
2953.606347572481809
 31
0.0
  0
TEXT
  5
16C
  8
DEFAULT
 62
    18
 10
6451.0839571141395936
 20
3041.0775389787308995
 30
0.0
 40
149.9999999999998863
  1
877
 41
0.8666666666666671
 51
14.9999777807452794
  0
LINE
  5
16D
  8
DEFAULT
 62
    12
 10
6520.5761446141414126
 20
2915.8260741349808995
 30
0.0
 11
6471.0780977391414126
 21
2866.3287596818558995
 31
0.0
  0
LINE
  5
16E
  8
DEFAULT
 62
    12
 10
7348.1064180516414126
 20
2866.3287596818558995
 30
0.0
 11
7397.6044649266414126
 21
2915.8260741349808995
 31
0.0
  0
LINE
  5
16F
  8
DEFAULT
 62
    12
 10
7372.8554414891395936
 20
2816.07753897872999
 30
0.0
 11
7372.8554414891395936
 21
3106.9999022599808995
 31
0.0
  0
LINE
  5
170
  8
DEFAULT
 62
    12
 10
6495.8271211766395936
 20
2816.07753897872999
 30
0.0
 11
6495.8271211766395936
 21
3163.56093741622999
 31
0.0
  0
LINE
  5
171
  8
DEFAULT
 62
    12
 10
6596.4325899266414126
 20
2891.0775389787308995
 30
0.0
 11
6471.0780977391414126
 21
2891.0775389787308995
 31
0.0
  0
LINE
  5
172
  8
DEFAULT
 62
    12
 10
6596.4325899266414126
 20
2891.0775389787308995
 30
0.0
 11
7397.6044649266414126
 21
2891.0775389787308995
 31
0.0
  0
TEXT
  5
174
  8
DEFAULT
 62
    18
 10
-1053.8355817679980646
 20
1597.7183837890620453
 30
0.0
 40
149.9999999999998863
  1
1752
 41
0.8666666666666671
 51
14.9999777807452794
  0
LINE
  5
175
  8
DEFAULT
 62
    12
 10
-1814.6226911429980646
 20
1472.4671630859379547
 30
0.0
 11
-1864.1207380179980646
 21
1422.9696044921879547
 31
0.0
  0
LINE
  5
176
  8
DEFAULT
 62
    12
 10
-112.1217145804985051
 20
1422.9696044921879547
 30
0.0
 11
-62.6236677054985194
 21
1472.4671630859379547
 31
0.0
  0
LINE
  5
177
  8
DEFAULT
 62
    12
 10
-1839.3717145804980646
 20
1522.7183837890620453
 30
0.0
 11
-1839.3717145804980646
 21
1331.17236328125
 31
0.0
  0
LINE
  5
178
  8
DEFAULT
 62
    12
 10
-87.3726911429985194
 20
1522.7183837890620453
 30
0.0
 11
-87.3726911429985194
 21
1331.17236328125
 31
0.0
  0
LINE
  5
179
  8
DEFAULT
 62
    12
 10
-884.1119489554985194
 20
1447.7183837890620453
 30
0.0
 11
-1864.1207380179980646
 21
1447.7183837890620453
 31
0.0
  0
LINE
  5
17A
  8
DEFAULT
 62
    12
 10
-884.1119489554985194
 20
1447.7183837890620453
 30
0.0
 11
-62.6236677054985194
 21
1447.7183837890620453
 31
0.0
  0
TEXT
  5
17C
  8
DEFAULT
 62
    18
 10
1902.4931640625
 20
1574.339111328125
 30
0.0
 40
149.9999999999998863
  1
1673
 41
0.8666666666666671
 51
14.9999777807452794
  0
LINE
  5
17D
  8
DEFAULT
 62
    12
 10
1092.12890625
 20
1449.087890625
 30
0.0
 11
1042.630859375
 21
1399.59033203125
 31
0.0
  0
LINE
  5
17E
  8
DEFAULT
 62
    12
 10
2715.740234375
 20
1399.59033203125
 30
0.0
 11
2765.23828125
 21
1449.087890625
 31
0.0
  0
LINE
  5
17F
  8
DEFAULT
 62
    12
 10
1067.3798828125
 20
1499.339111328125
 30
0.0
 11
1067.3798828125
 21
1331.38037109375
 31
0.0
  0
LINE
  5
180
  8
DEFAULT
 62
    12
 10
2740.4892578125
 20
1499.339111328125
 30
0.0
 11
2740.4892578125
 21
1331.17236328125
 31
0.0
  0
LINE
  5
181
  8
DEFAULT
 62
    12
 10
2072.216796875
 20
1424.339111328125
 30
0.0
 11
1042.630859375
 21
1424.339111328125
 31
0.0
  0
LINE
  5
182
  8
DEFAULT
 62
    12
 10
2072.216796875
 20
1424.339111328125
 30
0.0
 11
2765.23828125
 21
1424.339111328125
 31
0.0
  0
TEXT
  5
184
  8
DEFAULT
 62
    18
 10
-955.036753642998633
 20
-96.57421875
 30
0.0
 40
149.9999999999998863
  1
2184
 41
0.8666666666666671
 51
14.9999777807452794
  0
LINE
  5
185
  8
DEFAULT
 62
    12
 10
-1814.6226911429980646
 20
-221.825439453125
 30
0.0
 11
-1864.1207380179980646
 21
-271.322998046875
 31
0.0
  0
LINE
  5
186
  8
DEFAULT
 62
    12
 10
319.8782854195014806
 20
-271.322998046875
 30
0.0
 11
369.3763322945014806
 21
-221.825439453125
 31
0.0
  0
LINE
  5
187
  8
DEFAULT
 62
    12
 10
-1839.3717145804980646
 20
-321.57421875
 30
0.0
 11
-1839.3717145804980646
 21
1331.17236328125
 31
0.0
  0
LINE
  5
188
  8
DEFAULT
 62
    12
 10
344.6273088570014806
 20
-321.57421875
 30
0.0
 11
344.6273088570014806
 21
519.172119140625
 31
0.0
  0
LINE
  5
189
  8
DEFAULT
 62
    12
 10
-781.2506208304985194
 20
-246.57421875
 30
0.0
 11
-1864.1207380179980646
 21
-246.57421875
 31
0.0
  0
LINE
  5
18A
  8
DEFAULT
 62
    12
 10
-781.2506208304985194
 20
-246.57421875
 30
0.0
 11
369.3763322945014806
 21
-246.57421875
 31
0.0
  0
TEXT
  5
18C
  8
DEFAULT
 62
    18
 10
2442.5029296875
 20
1842.372314453125
 30
0.0
 40
149.9999999999998863
  1
2105
 41
0.8666666666666671
 51
14.9999777807452794
  0
LINE
  5
18D
  8
DEFAULT
 62
    12
 10
1092.12890625
 20
1717.12109375
 30
0.0
 11
1042.630859375
 21
1667.62353515625
 31
0.0
  0
LINE
  5
18E
  8
DEFAULT
 62
    12
 10
3147.740234375
 20
1667.62353515625
 30
0.0
 11
3197.23828125
 21
1717.12109375
 31
0.0
  0
LINE
  5
18F
  8
DEFAULT
 62
    12
 10
1067.3798828125
 20
1767.372314453125
 30
0.0
 11
1067.3798828125
 21
1331.38037109375
 31
0.0
  0
LINE
  5
190
  8
DEFAULT
 62
    12
 10
3172.4892578125
 20
1767.372314453125
 30
0.0
 11
3172.4892578125
 21
519.1723632812497726
 31
0.0
  0
LINE
  5
191
  8
DEFAULT
 62
    12
 10
2620.3515625
 20
1692.372314453125
 30
0.0
 11
1042.630859375
 21
1692.372314453125
 31
0.0
  0
LINE
  5
192
  8
DEFAULT
 62
    12
 10
2620.3515625
 20
1692.372314453125
 30
0.0
 11
3197.23828125
 21
1692.372314453125
 31
0.0
  0
TEXT
  5
19C
  8
DEFAULT
 62
    18
 10
3539.48046875
 20
918.6433105468746589
 30
0.0
 40
149.9999999999992042
  1
812
 50
90.0
 41
0.8666666666666714
 51
14.9999777807455601
  0
LINE
  5
19D
  8
DEFAULT
 62
    12
 10
3644.7314453125
 20
543.921142578125
 30
0.0
 11
3694.2294921875
 21
494.423583984375
 31
0.0
  0
LINE
  5
19E
  8
DEFAULT
 62
    12
 10
3694.2294921875
 20
1306.423583984375
 30
0.0
 11
3644.7314453125
 21
1355.921142578125
 31
0.0
  0
LINE
  5
19F
  8
DEFAULT
 62
    12
 10
3744.48046875
 20
1331.17236328125
 30
0.0
 11
2740.4892578125
 21
1331.17236328125
 31
0.0
  0
LINE
  5
1A0
  8
DEFAULT
 62
    12
 10
3744.48046875
 20
519.1723632812497726
 30
0.0
 11
3172.4892578125
 21
519.1723632812497726
 31
0.0
  0
LINE
  5
1A1
  8
DEFAULT
 62
    12
 10
3669.480468750001819
 20
1047.7421875
 30
0.0
 11
3669.480468750001819
 21
494.423583984375
 31
0.0
  0
LINE
  5
1A2
  8
DEFAULT
 62
    12
 10
3669.480468750001819
 20
1047.7421875
 30
0.0
 11
3669.480468750001819
 21
1355.921142578125
 31
0.0
  0
TEXT
  5
1A4
  8
DEFAULT
 62
    18
 10
7647.6650118016414126
 20
3504.8138671037308995
 30
0.0
 40
150.0
  1
800
 50
90.0
 41
0.8666666666666667
 51
14.9999777807454393
  0
LINE
  5
1A5
  8
DEFAULT
 62
    12
 10
7752.9164766453895936
 20
3131.74868155685499
 30
0.0
 11
7802.4135469578914126
 21
3082.2511229631058995
 31
0.0
  0
LINE
  5
1A6
  8
DEFAULT
 62
    12
 10
7802.4135469578914126
 20
3882.2511229631058995
 30
0.0
 11
7752.9164766453895936
 21
3931.7486815568558995
 31
0.0
  0
LINE
  5
1A7
  8
DEFAULT
 62
    12
 10
7852.6650118016395936
 20
3906.99990225997999
 30
0.0
 11
6919.8554414891395936
 21
3906.99990225997999
 31
0.0
  0
LINE
  5
1A8
  8
DEFAULT
 62
    12
 10
7852.6650118016395936
 20
3106.9999022599808995
 30
0.0
 11
7372.8554414891395936
 21
3106.9999022599808995
 31
0.0
  0
LINE
  5
1A9
  8
DEFAULT
 62
    12
 10
7777.6650118016414126
 20
3666.4127440568558995
 30
0.0
 11
7777.6650118016414126
 21
3082.2511229631058995
 31
0.0
  0
LINE
  5
1AA
  8
DEFAULT
 62
    12
 10
7777.6650118016414126
 20
3666.4127440568558995
 30
0.0
 11
7777.6650118016414126
 21
3931.7486815568558995
 31
0.0
  0
TEXT
  5
1AC
  8
DEFAULT
 62
    18
 10
-1176.7252302054980646
 20
513.1726074218747726
 30
0.0
 40
149.9999999999998863
  1
204
 41
0.8666666666666671
 51
14.9999777807452794
  0
LINE
  5
1AD
  8
DEFAULT
 62
    12
 10
-1227.7105817679980646
 20
338.423828125
 30
0.0
 11
-1178.2125348929980646
 21
387.92138671875
 31
0.0
  0
LINE
  5
1AE
  8
DEFAULT
 62
    12
 10
-1382.6226911429980646
 20
387.92138671875
 30
0.0
 11
-1432.1207380179980646
 21
338.423828125
 31
0.0
  0
LINE
  5
1AF
  8
DEFAULT
 62
    12
 10
-1407.3717145804980646
 20
288.172607421875
 30
0.0
 11
-1407.3717145804980646
 21
519.1723632812497726
 31
0.0
  0
LINE
  5
1B0
  8
DEFAULT
 62
    12
 10
-1202.9615583304980646
 20
288.172607421875
 30
0.0
 11
-1202.9615583304980646
 21
574.791259765625
 31
0.0
  0
LINE
  5
1B1
  8
DEFAULT
 62
    12
 10
-1432.1207380179980646
 20
363.172607421875
 30
0.0
 11
-1202.9615583304980646
 21
363.172607421875
 31
0.0
  0
LINE
  5
1B2
  8
DEFAULT
 62
    12
 10
-861.652964580498633
 20
363.172607421875
 30
0.0
 11
-1202.9615583304980646
 21
363.172607421875
 31
0.0
  0
TEXT
  5
1B4
  8
DEFAULT
 62
    18
 10
-833.0094098929984057
 20
415.4641113281247726
 30
0.0
 40
149.9999999999998863
  1
882
 41
0.8666666666666671
 51
14.9999777807452794
  0
LINE
  5
1B5
  8
DEFAULT
 62
    12
 10
-1382.6226911429980646
 20
290.212890625
 30
0.0
 11
-1432.1207380179980646
 21
240.71533203125
 31
0.0
  0
LINE
  5
1B6
  8
DEFAULT
 62
    12
 10
-549.7105817679985194
 20
240.71533203125
 30
0.0
 11
-500.2125348929985762
 21
290.212890625
 31
0.0
  0
LINE
  5
1B7
  8
DEFAULT
 62
    12
 10
-1407.3717145804980646
 20
190.464111328125
 30
0.0
 11
-1407.3717145804980646
 21
519.1723632812497726
 31
0.0
  0
LINE
  5
1B8
  8
DEFAULT
 62
    12
 10
-524.9615583304985194
 20
190.464111328125
 30
0.0
 11
-524.9615583304985194
 21
574.79052734375
 31
0.0
  0
LINE
  5
1B9
  8
DEFAULT
 62
    12
 10
-679.5357770804985194
 20
265.464111328125
 30
0.0
 11
-1432.1207380179980646
 21
265.464111328125
 31
0.0
  0
LINE
  5
1BA
  8
DEFAULT
 62
    12
 10
-679.5357770804985194
 20
265.464111328125
 30
0.0
 11
-500.2125348929985762
 21
265.464111328125
 31
0.0
  0
TEXT
  5
1BC
  8
DEFAULT
 62
    18
 10
-460.0582380179985194
 20
295.622802734375
 30
0.0
 40
149.9999999999998863
  1
1568
 41
0.8666666666666671
 51
14.9999777807452794
  0
LINE
  5
1BD
  8
DEFAULT
 62
    12
 10
-1382.6226911429980646
 20
170.37158203125
 30
0.0
 11
-1432.1207380179980646
 21
120.8740234375
 31
0.0
  0
LINE
  5
1BE
  8
DEFAULT
 62
    12
 10
136.2894182320015091
 20
120.8740234375
 30
0.0
 11
185.7874651070013954
 21
170.37158203125
 31
0.0
  0
LINE
  5
1BF
  8
DEFAULT
 62
    12
 10
-1407.3717145804980646
 20
70.622802734375
 30
0.0
 11
-1407.3717145804980646
 21
519.1723632812497726
 31
0.0
  0
LINE
  5
1C0
  8
DEFAULT
 62
    12
 10
161.0384416695015091
 20
70.622802734375
 30
0.0
 11
161.0384416695015091
 21
574.791259765625
 31
0.0
  0
LINE
  5
1C1
  8
DEFAULT
 62
    12
 10
-286.2721052054985194
 20
145.622802734375
 30
0.0
 11
-1432.1207380179980646
 21
145.622802734375
 31
0.0
  0
LINE
  5
1C2
  8
DEFAULT
 62
    12
 10
-286.2721052054985194
 20
145.622802734375
 30
0.0
 11
185.7874651070013954
 21
145.622802734375
 31
0.0
  0
TEXT
  5
1C4
  8
DEFAULT
 62
    18
 10
2652.849609375
 20
509.450439453125
 30
0.0
 40
149.9999999999998863
  1
170
 41
0.8666666666666671
 51
14.9999777807452794
  0
LINE
  5
1C5
  8
DEFAULT
 62
    12
 10
3147.740234375
 20
334.70166015625
 30
0.0
 11
3197.23828125
 21
384.19921875
 31
0.0
  0
LINE
  5
1C6
  8
DEFAULT
 62
    12
 10
3027.6474609375
 20
384.19921875
 30
0.0
 11
2978.1494140625
 21
334.70166015625
 31
0.0
  0
LINE
  5
1C7
  8
DEFAULT
 62
    12
 10
3172.4892578125
 20
284.450439453125
 30
0.0
 11
3172.4892578125
 21
519.1723632812497726
 31
0.0
  0
LINE
  5
1C8
  8
DEFAULT
 62
    12
 10
3002.8984375
 20
284.450439453125
 30
0.0
 11
3002.8984375
 21
574.79052734375
 31
0.0
  0
LINE
  5
1C9
  8
DEFAULT
 62
    12
 10
3002.8984375
 20
359.450439453125
 30
0.0
 11
2652.849609375
 21
359.450439453125
 31
0.0
  0
LINE
  5
1CA
  8
DEFAULT
 62
    12
 10
3002.8984375
 20
359.450439453125
 30
0.0
 11
3197.23828125
 21
359.450439453125
 31
0.0
  0
TEXT
  5
1CC
  8
DEFAULT
 62
    18
 10
2352.58984375
 20
415.619140625
 30
0.0
 40
149.9999999999998863
  1
861
 41
0.8666666666666671
 51
14.9999777807452794
  0
LINE
  5
1CD
  8
DEFAULT
 62
    12
 10
2336.6484375
 20
290.367919921875
 30
0.0
 11
2287.150390625
 21
240.870361328125
 31
0.0
  0
LINE
  5
1CE
  8
DEFAULT
 62
    12
 10
3147.740234375
 20
240.870361328125
 30
0.0
 11
3197.23828125
 21
290.367919921875
 31
0.0
  0
LINE
  5
1CF
  8
DEFAULT
 62
    12
 10
3172.4892578125
 20
190.619140625
 30
0.0
 11
3172.4892578125
 21
519.1723632812497726
 31
0.0
  0
LINE
  5
1D0
  8
DEFAULT
 62
    12
 10
2311.8994140625
 20
190.619140625
 30
0.0
 11
2311.8994140625
 21
574.7910156249997726
 31
0.0
  0
LINE
  5
1D1
  8
DEFAULT
 62
    12
 10
2481.6884765625
 20
265.619140625
 30
0.0
 11
2287.150390625
 21
265.619140625
 31
0.0
  0
LINE
  5
1D2
  8
DEFAULT
 62
    12
 10
2481.6884765625
 20
265.619140625
 30
0.0
 11
3197.23828125
 21
265.619140625
 31
0.0
  0
TEXT
  5
1D4
  8
DEFAULT
 62
    18
 10
1896.427734375
 20
308.093505859375
 30
0.0
 40
149.9999999999998863
  1
1548
 41
0.8666666666666671
 51
14.9999777807452794
  0
LINE
  5
1D5
  8
DEFAULT
 62
    12
 10
1649.6474609375
 20
182.84228515625
 30
0.0
 11
1600.1494140625
 21
133.3447265625
 31
0.0
  0
LINE
  5
1D6
  8
DEFAULT
 62
    12
 10
3147.740234375
 20
133.3447265625
 30
0.0
 11
3197.23828125
 21
182.84228515625
 31
0.0
  0
LINE
  5
1D7
  8
DEFAULT
 62
    12
 10
3172.4892578125
 20
83.0935058593749858
 30
0.0
 11
3172.4892578125
 21
519.1723632812497726
 31
0.0
  0
LINE
  5
1D8
  8
DEFAULT
 62
    12
 10
1624.8984375
 20
83.0935058593749858
 30
0.0
 11
1624.8984375
 21
574.790771484375
 31
0.0
  0
LINE
  5
1D9
  8
DEFAULT
 62
    12
 10
2070.2138671875
 20
158.093505859375
 30
0.0
 11
1600.1494140625
 21
158.093505859375
 31
0.0
  0
LINE
  5
1DA
  8
DEFAULT
 62
    12
 10
2070.2138671875
 20
158.093505859375
 30
0.0
 11
3197.23828125
 21
158.093505859375
 31
0.0
  0
LINE
  5
1DB
  8
DEFAULT
  6
CONTINUOUS
 62
    18
 10
-1756.733154296875
 20
6255.44482421875
 30
0.0
 11
-1736.733154296875
 21
6255.44482421875
 31
0.0
  0
LINE
  5
1DC
  8
DEFAULT
  6
CONTINUOUS
 62
    18
 10
-1736.733154296875
 20
6235.44482421875
 30
0.0
 11
-1756.733154296875
 21
6235.44482421875
 31
0.0
  0
LINE
  5
1DD
  8
DEFAULT
  6
CONTINUOUS
 62
    18
 10
-1736.733154296875
 20
6325.44482421875
 30
0.0
 11
-1736.733154296875
 21
6255.44482421875
 31
0.0
  0
LINE
  5
1DE
  8
DEFAULT
  6
CONTINUOUS
 62
    18
 10
-2994.733154296875
 20
6325.44482421875
 30
0.0
 11
-1736.733154296875
 21
6325.44482421875
 31
0.0
  0
LINE
  5
1DF
  8
DEFAULT
  6
CONTINUOUS
 62
    18
 10
-2994.733154296875
 20
5405.4448242187509095
 30
0.0
 11
-2994.733154296875
 21
6325.44482421875
 31
0.0
  0
LINE
  5
1E0
  8
DEFAULT
  6
CONTINUOUS
 62
    18
 10
-1736.733154296875
 20
5405.4448242187509095
 30
0.0
 11
-2994.733154296875
 21
5405.4448242187509095
 31
0.0
  0
LINE
  5
1E1
  8
DEFAULT
  6
CONTINUOUS
 62
    18
 10
-1736.733154296875
 20
6235.44482421875
 30
0.0
 11
-1736.733154296875
 21
5405.4448242187509095
 31
0.0
  0
ARC
  5
1E2
  8
DEFAULT
  6
CONTINUOUS
 62
    18
 10
-1758.1947021484379547
 20
6245.4448242187509095
 30
0.0
 40
10.1062417407465492
 50
81.6848215675427838
 51
278.3151784324571736
  0
TEXT
  5
1E4
  8
DEFAULT
 62
    18
 10
-2215.468994140625
 20
6324.2490234375
 30
0.0
 40
150.0
  1
R10
 41
0.8666666666666667
 51
14.9999777807454393
  0
LINE
  5
1E5
  8
DEFAULT
 62
    12
 10
-1759.0888671875
 20
6202.70654296875
 30
0.0
 11
-1769.3447265625
 21
6271.95068359375
 31
0.0
  0
LINE
  5
1E6
  8
DEFAULT
 62
    12
 10
-1811.021240234375
 20
6174.2490234375
 30
0.0
 11
-1758.1947021484379547
 21
6245.4448242187509095
 31
0.0
  0
LINE
  5
1E7
  8
DEFAULT
 62
    12
 10
-1811.021240234375
 20
6174.2490234375
 30
0.0
 11
-2215.468994140625
 21
6174.2490234375
 31
0.0
  0
ARC
  5
1E8
  8
DEFAULT
  6
CONTINUOUS
 62
    18
 10
-1006.6581919577620283
 20
6634.0686327328830885
 30
0.0
 40
10.1370636517023094
210
0.0
220
0.0
230
-1.0
 50
70.7227909920251534
 51
231.857511286547691
  0
LINE
  5
1E9
  8
DEFAULT
  6
CONTINUOUS
 62
    18
 10
1394.1436767578120453
 20
5888.42578125
 30
0.0
 11
995.37774658203125
 21
6616.4882812499990905
 31
0.0
  0
LINE
  5
1EA
  8
DEFAULT
  6
CONTINUOUS
 62
    18
 10
995.37774658203125
 20
6616.4882812499990905
 30
0.0
 11
1012.9190673828120453
 21
6626.095703125
 31
0.0
  0
LINE
  5
1EB
  8
DEFAULT
  6
CONTINUOUS
 62
    18
 10
1003.3115234375
 20
6643.6376953125
 30
0.0
 11
985.770263671875
 21
6634.0302734375
 31
0.0
  0
LINE
  5
1EC
  8
DEFAULT
  6
CONTINUOUS
 62
    18
 10
1394.1436767578120453
 20
5888.42578125
 30
0.0
 11
2993.143798828125
 21
5888.42578125
 31
0.0
  0
LINE
  5
1ED
  8
DEFAULT
  6
CONTINUOUS
 62
    18
 10
2993.143798828125
 20
5888.42578125
 30
0.0
 11
2551.19970703125
 21
6695.3251953125
 31
0.0
  0
LINE
  5
1EE
  8
DEFAULT
  6
CONTINUOUS
 62
    18
 10
2551.19970703125
 20
6695.3251953125
 30
0.0
 11
952.14410400390625
 21
6695.423828125
 31
0.0
  0
LINE
  5
1EF
  8
DEFAULT
  6
CONTINUOUS
 62
    18
 10
985.770263671875
 20
6634.0302734375
 30
0.0
 11
952.14410400390625
 21
6695.423828125
 31
0.0
  0
CIRCLE
  5
1F0
  8
DEFAULT
  6
CONTINUOUS
 62
    18
 10
5921.8033342970493322
 20
5978.4154128707587006
 30
0.0
 40
15.0
  0
CIRCLE
  5
1F1
  8
DEFAULT
  6
CONTINUOUS
 62
    18
 10
1647.3995390696450158
 20
5944.5576390228306991
 30
0.0
 40
15.0
  0
LINE
  5
1F2
  8
DEFAULT
  6
CONTINUOUS
 62
    18
 10
6324.5474548497859359
 20
6729.2838046280312483
 30
0.0
 11
4851.6033630529118454
 21
6729.1832186905312483
 31
0.0
  0
LINE
  5
1F3
  8
DEFAULT
  6
CONTINUOUS
 62
    18
 10
6766.5476989904136644
 20
5922.2838046280303388
 30
0.0
 11
6324.5474548497859359
 21
6729.2838046280312483
 31
0.0
  0
LINE
  5
1F4
  8
DEFAULT
  6
CONTINUOUS
 62
    18
 10
2551.19970703125
 20
6695.3251953125
 30
0.0
 11
952.14410400390625
 21
6695.423828125
 31
0.0
  0
LINE
  5
1F5
  8
DEFAULT
  6
CONTINUOUS
 62
    18
 10
2993.143798828125
 20
5888.42578125
 30
0.0
 11
1394.1436767578120453
 21
5888.42578125
 31
0.0
  0
LINE
  5
1F6
  8
DEFAULT
  6
CONTINUOUS
 62
    18
 10
2551.19970703125
 20
6695.3251953125
 30
0.0
 11
2993.143798828125
 21
5888.42578125
 31
0.0
  0
LINE
  5
1F7
  8
DEFAULT
  6
CONTINUOUS
 62
    18
 10
4851.6033630529118454
 20
6729.1832186905312483
 30
0.0
 11
5293.5474548497877549
 21
5922.2838046280303388
 31
0.0
  0
LINE
  5
1F8
  8
DEFAULT
  6
CONTINUOUS
 62
    18
 10
5293.5474548497877549
 20
5922.2838046280303388
 30
0.0
 11
6766.5476989904136644
 21
5922.2838046280303388
 31
0.0
  0
CIRCLE
  5
1F9
  8
DEFAULT
  6
CONTINUOUS
 62
    18
 10
2318.3996372410751974
 20
5944.557609411294834
 30
0.0
 40
15.0
  0
CIRCLE
  5
1FA
  8
DEFAULT
  6
CONTINUOUS
 62
    18
 10
6588.8033934989198315
 20
5978.4153580824113305
 30
0.0
 40
15.0
  0
LINE
  5
1FB
  8
DEFAULT
  6
CONTINUOUS
 62
    18
 10
3481.28125
 20
4048.097900390625
 30
0.0
 11
1775.599609375
 21
4047.534423828125
 31
0.0
  0
INSERT
  5
1FC
  8
0
  2
*U9
 10
0.0
 20
0.0
 30
0.0
  0
INSERT
  5
1FD
  8
0
  2
*U10
 10
0.0
 20
0.0
 30
0.0
  0
INSERT
  5
1FE
  8
0
  2
*U11
 10
0.0
 20
0.0
 30
0.0
  0
INSERT
  5
1FF
  8
0
  2
*U12
 10
0.0
 20
0.0
 30
0.0
  0
INSERT
  5
200
  8
0
  2
*U13
 10
0.0
 20
0.0
 30
0.0
  0
INSERT
  5
201
  8
0
  2
*U14
 10
0.0
 20
0.0
 30
0.0
  0
INSERT
  5
202
  8
0
  2
*U15
 10
0.0
 20
0.0
 30
0.0
  0
INSERT
  5
203
  8
0
  2
*U16
 10
0.0
 20
0.0
 30
0.0
  0
TEXT
  5
20D
  8
DEFAULT
 62
    18
 10
7086.2933044591627549
 20
6237.3131015030303388
 30
0.0
 40
150.0
  1
807
 50
90.0
 41
0.8666666666666667
 51
14.9999777807454393
  0
LINE
  5
20E
  8
DEFAULT
 62
    12
 10
7191.5447693029118454
 20
5947.0323397842803388
 30
0.0
 11
7241.0418396154118454
 21
5897.5352694717812483
 31
0.0
  0
LINE
  5
20F
  8
DEFAULT
 62
    12
 10
7241.0418396154118454
 20
6704.5352694717803388
 30
0.0
 11
7191.5447693029118454
 21
6754.0323397842803388
 31
0.0
  0
LINE
  5
210
  8
DEFAULT
 62
    12
 10
7291.2933044591627549
 20
5922.2838046280303388
 30
0.0
 11
6766.5476989904136644
 21
5922.2838046280303388
 31
0.0
  0
LINE
  5
211
  8
DEFAULT
 62
    12
 10
7291.2933044591627549
 20
6729.2838046280312483
 30
0.0
 11
6324.5474548497859359
 21
6729.2838046280312483
 31
0.0
  0
LINE
  5
212
  8
DEFAULT
 62
    12
 10
7216.2933044591627549
 20
6390.7872225967812483
 30
0.0
 11
7216.2933044591627549
 21
5897.5352694717812483
 31
0.0
  0
LINE
  5
213
  8
DEFAULT
 62
    12
 10
7216.2933044591627549
 20
6390.7872225967812483
 30
0.0
 11
7216.2933044591627549
 21
6754.0323397842803388
 31
0.0
  0
TEXT
  5
215
  8
DEFAULT
 62
    18
 10
1732.047119140625
 20
5195.54638671875
 30
0.0
 40
150.0
  1
2041
 41
0.8666666666666667
 51
14.9999777807454393
  0
LINE
  5
216
  8
DEFAULT
 62
    12
 10
976.8928222656245453
 20
5070.2949218749990905
 30
0.0
 11
927.3953857421876137
 21
5020.7978515625
 31
0.0
  0
LINE
  5
217
  8
DEFAULT
 62
    12
 10
2968.39501953125
 20
5020.7978515625
 30
0.0
 11
3017.892578125
 21
5070.2949218749990905
 31
0.0
  0
LINE
  5
218
  8
DEFAULT
 62
    12
 10
952.14410400390625
 20
4970.54638671875
 30
0.0
 11
952.14410400390625
 21
6695.423828125
 31
0.0
  0
LINE
  5
219
  8
DEFAULT
 62
    12
 10
2993.143798828125
 20
4970.54638671875
 30
0.0
 11
2993.143798828125
 21
5888.42578125
 31
0.0
  0
LINE
  5
21A
  8
DEFAULT
 62
    12
 10
1909.89599609375
 20
5045.5463867187509095
 30
0.0
 11
927.3953857421876137
 21
5045.5463867187509095
 31
0.0
  0
LINE
  5
21B
  8
DEFAULT
 62
    12
 10
1909.89599609375
 20
5045.5463867187509095
 30
0.0
 11
3017.892578125
 21
5045.5463867187509095
 31
0.0
  0
TEXT
  5
21D
  8
DEFAULT
 62
    18
 10
6265.0752868810395739
 20
7524.9029452530312483
 30
0.0
 40
150.0
  1
1915
 41
0.8666666666666667
 51
14.9999777807454393
  0
LINE
  5
21E
  8
DEFAULT
 62
    12
 10
4876.3521423497868454
 20
7399.6514804092812483
 30
0.0
 11
4826.8545837560377549
 21
7350.1544100967812483
 31
0.0
  0
LINE
  5
21F
  8
DEFAULT
 62
    12
 10
6741.7991638341627549
 20
7350.1544100967812483
 30
0.0
 11
6791.2962341466618454
 21
7399.6514804092812483
 31
0.0
  0
LINE
  5
220
  8
DEFAULT
 62
    12
 10
4851.6033630529118454
 20
7449.9029452530312483
 30
0.0
 11
4851.6033630529118454
 21
6729.1832186905312483
 31
0.0
  0
LINE
  5
221
  8
DEFAULT
 62
    12
 10
6766.5476989904136644
 20
7449.9029452530312483
 30
0.0
 11
6766.5476989904136644
 21
5922.2838046280303388
 31
0.0
  0
LINE
  5
222
  8
DEFAULT
 62
    12
 10
6414.4866638341618454
 20
7374.9029452530312483
 30
0.0
 11
4826.8545837560377549
 21
7374.9029452530312483
 31
0.0
  0
LINE
  5
223
  8
DEFAULT
 62
    12
 10
6414.4866638341618454
 20
7374.9029452530312483
 30
0.0
 11
6791.2962341466618454
 21
7374.9029452530312483
 31
0.0
  0
TEXT
  5
225
  8
DEFAULT
 62
    18
 10
5581.0157165685377549
 20
6993.9053866592803388
 30
0.0
 40
150.0
  1
1473
 41
0.8666666666666667
 51
14.9999777807454393
  0
LINE
  5
226
  8
DEFAULT
 62
    12
 10
4876.3521423497868454
 20
6868.6539218155303388
 30
0.0
 11
4826.8545837560377549
 21
6819.1568515030303388
 31
0.0
  0
LINE
  5
227
  8
DEFAULT
 62
    12
 10
6299.7986755529109359
 20
6819.1568515030303388
 30
0.0
 11
6349.2962341466600265
 21
6868.6539218155303388
 31
0.0
  0
LINE
  5
228
  8
DEFAULT
 62
    12
 10
4851.6033630529118454
 20
6918.9053866592803388
 30
0.0
 11
4851.6033630529118454
 21
6729.1832186905312483
 31
0.0
  0
LINE
  5
229
  8
DEFAULT
 62
    12
 10
6324.5474548497859359
 20
6918.9053866592803388
 30
0.0
 11
6324.5474548497859359
 21
6729.2838046280312483
 31
0.0
  0
LINE
  5
22A
  8
DEFAULT
 62
    12
 10
5750.7395935216627549
 20
6843.9053866592803388
 30
0.0
 11
4826.8545837560377549
 21
6843.9053866592803388
 31
0.0
  0
LINE
  5
22B
  8
DEFAULT
 62
    12
 10
5750.7395935216627549
 20
6843.9053866592803388
 30
0.0
 11
6349.2962341466600265
 21
6843.9053866592803388
 31
0.0
  0
TEXT
  5
22D
  8
DEFAULT
 62
    18
 10
1502.0870361328109084
 20
6965.9326171875009095
 30
0.0
 40
150.0
  1
1599
 41
0.8666666666666667
 51
14.9999777807454393
  0
LINE
  5
22E
  8
DEFAULT
 62
    12
 10
976.8928222656245453
 20
6840.68115234375
 30
0.0
 11
927.3953857421876137
 21
6791.18408203125
 31
0.0
  0
LINE
  5
22F
  8
DEFAULT
 62
    12
 10
2526.450927734375
 20
6791.18408203125
 30
0.0
 11
2575.948486328125
 21
6840.68115234375
 31
0.0
  0
LINE
  5
230
  8
DEFAULT
 62
    12
 10
2551.19970703125
 20
6890.9326171875009095
 30
0.0
 11
2551.19970703125
 21
6695.3251953125
 31
0.0
  0
LINE
  5
231
  8
DEFAULT
 62
    12
 10
952.14410400390625
 20
6890.9326171875009095
 30
0.0
 11
952.14410400390625
 21
6695.423828125
 31
0.0
  0
LINE
  5
232
  8
DEFAULT
 62
    12
 10
1675.8734130859379547
 20
6815.9326171874990905
 30
0.0
 11
927.3953857421876137
 21
6815.9326171874990905
 31
0.0
  0
LINE
  5
233
  8
DEFAULT
 62
    12
 10
1675.8734130859379547
 20
6815.9326171874990905
 30
0.0
 11
2575.948486328125
 21
6815.9326171874990905
 31
0.0
  0
TEXT
  5
235
  8
DEFAULT
 62
    18
 10
1683.534912109375
 20
5869.93212890625
 30
0.0
 40
150.0
  1
253
 41
0.8666666666666667
 51
14.9999777807454393
  0
LINE
  5
236
  8
DEFAULT
 62
    12
 10
1622.6507568359379547
 20
5695.18359375
 30
0.0
 11
1672.1483154296879547
 21
5744.6806640624990905
 31
0.0
  0
LINE
  5
237
  8
DEFAULT
 62
    12
 10
1418.8924560546879547
 20
5744.6806640624990905
 30
0.0
 11
1369.3948974609379547
 21
5695.18359375
 31
0.0
  0
LINE
  5
238
  8
DEFAULT
 62
    12
 10
1394.1436767578120453
 20
5644.93212890625
 30
0.0
 11
1394.1436767578120453
 21
5888.42578125
 31
0.0
  0
LINE
  5
239
  8
DEFAULT
 62
    12
 10
1647.3995361328120453
 20
5644.93212890625
 30
0.0
 11
1647.3995361328120453
 21
5944.5576171875
 31
0.0
  0
LINE
  5
23A
  8
DEFAULT
 62
    12
 10
1369.3948974609379547
 20
5719.9321289062509095
 30
0.0
 11
1647.3995361328120453
 21
5719.9321289062509095
 31
0.0
  0
LINE
  5
23B
  8
DEFAULT
 62
    12
 10
1990.482666015625
 20
5719.9321289062509095
 30
0.0
 11
1647.3995361328120453
 21
5719.9321289062509095
 31
0.0
  0
TEXT
  5
23D
  8
DEFAULT
 62
    18
 10
1849.751220703125
 20
5690.09130859375
 30
0.0
 40
150.0
  1
924
 41
0.8666666666666667
 51
14.9999777807454393
  0
LINE
  5
23E
  8
DEFAULT
 62
    12
 10
1418.8924560546879547
 20
5564.83984375
 30
0.0
 11
1369.3948974609379547
 21
5515.3427734375
 31
0.0
  0
LINE
  5
23F
  8
DEFAULT
 62
    12
 10
2293.65087890625
 20
5515.3427734375
 30
0.0
 11
2343.1484375
 21
5564.83984375
 31
0.0
  0
LINE
  5
240
  8
DEFAULT
 62
    12
 10
1394.1436767578120453
 20
5465.09130859375
 30
0.0
 11
1394.1436767578120453
 21
5888.42578125
 31
0.0
  0
LINE
  5
241
  8
DEFAULT
 62
    12
 10
2318.399658203125
 20
5465.09130859375
 30
0.0
 11
2318.399658203125
 21
5944.5576171875
 31
0.0
  0
LINE
  5
242
  8
DEFAULT
 62
    12
 10
2003.22509765625
 20
5540.09130859375
 30
0.0
 11
1369.3948974609379547
 21
5540.09130859375
 31
0.0
  0
LINE
  5
243
  8
DEFAULT
 62
    12
 10
2003.22509765625
 20
5540.09130859375
 30
0.0
 11
2343.1484375
 21
5540.09130859375
 31
0.0
  0
TEXT
  5
245
  8
DEFAULT
 62
    18
 10
6211.7820739904127549
 20
5921.9556796280303388
 30
0.0
 40
150.0
  1
178
 41
0.8666666666666667
 51
14.9999777807454393
  0
LINE
  5
246
  8
DEFAULT
 62
    12
 10
6741.7991638341627549
 20
5747.2071444717803388
 30
0.0
 11
6791.2962341466618454
 21
5796.7042147842812483
 31
0.0
  0
LINE
  5
247
  8
DEFAULT
 62
    12
 10
6613.5520935216627549
 20
5796.7042147842812483
 30
0.0
 11
6564.0550232091627549
 21
5747.2071444717803388
 31
0.0
  0
LINE
  5
248
  8
DEFAULT
 62
    12
 10
6766.5476989904136644
 20
5696.9556796280303388
 30
0.0
 11
6766.5476989904136644
 21
5922.2838046280303388
 31
0.0
  0
LINE
  5
249
  8
DEFAULT
 62
    12
 10
6588.8035583654118454
 20
5696.9556796280303388
 30
0.0
 11
6588.8035583654118454
 21
5978.4151522842812483
 31
0.0
  0
LINE
  5
24A
  8
DEFAULT
 62
    12
 10
6588.8035583654118454
 20
5771.9556796280303388
 30
0.0
 11
6211.7820739904127549
 21
5771.9556796280303388
 31
0.0
  0
LINE
  5
24B
  8
DEFAULT
 62
    12
 10
6588.8035583654118454
 20
5771.9556796280303388
 30
0.0
 11
6791.2962341466618454
 21
5771.9556796280303388
 31
0.0
  0
TEXT
  5
24D
  8
DEFAULT
 62
    18
 10
5597.5000915685368454
 20
5810.6905429092812483
 30
0.0
 40
150.0
  1
845
 41
0.8666666666666667
 51
14.9999777807454393
  0
LINE
  5
24E
  8
DEFAULT
 62
    12
 10
6741.7991638341627549
 20
5635.9420077530303388
 30
0.0
 11
6791.2962341466618454
 21
5685.4390780655312483
 31
0.0
  0
LINE
  5
24F
  8
DEFAULT
 62
    12
 10
5946.5520935216627549
 20
5685.4390780655312483
 30
0.0
 11
5897.0545349279145739
 21
5635.9420077530303388
 31
0.0
  0
LINE
  5
250
  8
DEFAULT
 62
    12
 10
6766.5476989904136644
 20
5585.6905429092803388
 30
0.0
 11
6766.5476989904136644
 21
5922.2838046280303388
 31
0.0
  0
LINE
  5
251
  8
DEFAULT
 62
    12
 10
5921.8033142247877549
 20
5585.6905429092803388
 30
0.0
 11
5921.8033142247877549
 21
5978.4156405655303388
 31
0.0
  0
LINE
  5
252
  8
DEFAULT
 62
    12
 10
5921.8033142247877549
 20
5660.6905429092803388
 30
0.0
 11
5597.5000915685368454
 21
5660.6905429092803388
 31
0.0
  0
LINE
  5
253
  8
DEFAULT
 62
    12
 10
5921.8033142247877549
 20
5660.6905429092803388
 30
0.0
 11
6791.2962341466618454
 21
5660.6905429092803388
 31
0.0
  0
TEXT
  5
255
  8
DEFAULT
 62
    18
 10
1278.3001708984379547
 20
6352.79052734375
 30
0.0
 40
150.0
  1
20
 50
28.7096222932887208
 41
0.8666666666666667
 51
14.9999777807454393
  0
LINE
  5
256
  8
DEFAULT
 62
    12
 10
1231.7850341796879547
 20
6133.33349609375
 30
0.0
 11
1251.4205322265620453
 21
6200.5229492187509095
 31
0.0
  0
LINE
  5
257
  8
DEFAULT
 62
    12
 10
1268.9619140625
 20
6210.13037109375
 30
0.0
 11
1249.326416015625
 21
6142.9409179687509095
 31
0.0
  0
LINE
  5
258
  8
DEFAULT
 62
    12
 10
1259.1441650390620453
 20
6176.53564453125
 30
0.0
 11
1173.8505859375
 21
6129.8203125
 31
0.0
  0
LINE
  5
259
  8
DEFAULT
 62
    12
 10
1538.7003173828120453
 20
6329.6494140625
 30
0.0
 11
1259.1441650390620453
 21
6176.53564453125
 31
0.0
  0
LINE
  5
25A
  8
DEFAULT
 62
    12
 10
995.37774658203125
 20
6616.4882812499990905
 30
0.0
 11
1277.630615234375
 21
6101.1484375
 31
0.0
  0
LINE
  5
25B
  8
DEFAULT
 62
    12
 10
1012.9190673828120453
 20
6626.095703125
 30
0.0
 11
1295.171875
 21
6110.755859375
 31
0.0
  0
TEXT
  5
25D
  8
DEFAULT
 62
    18
 10
505.7064208984375
 20
6686.45849609375
 30
0.0
 40
150.0
  1
R10
 41
0.8666666666666667
 51
14.9999777807454393
  0
LINE
  5
25E
  8
DEFAULT
 62
    12
 10
999.730712890625
 20
6591.86083984375
 30
0.0
 11
999.3316650390622726
 21
6661.85986328125
 31
0.0
  0
LINE
  5
25F
  8
DEFAULT
 62
    12
 10
910.1542968749998863
 20
6536.45849609375
 30
0.0
 11
1006.658203125
 21
6634.0688476562509095
 31
0.0
  0
LINE
  5
260
  8
DEFAULT
 62
    12
 10
910.1542968749998863
 20
6536.45849609375
 30
0.0
 11
505.7064208984375
 21
6536.45849609375
 31
0.0
  0
DIMENSION
  5
33C
  8
0
  2
*D11
 10
2308.7814075568981025
 20
5933.0471942258027411
 30
0.0
 11
2374.5527816795188301
 21
6011.7577104361926104
 31
0.0
 70
   131
 15
2328.0178669252532018
 25
5956.0680245967869268
 35
0.0
 40
0.0
1001
ACAD
1000
DSTYLE
1002
{
1070
   278
1070
    46
1002
}
1001
ACAD_DSTYLE_DIMRADIAL_EXTENSION
1070
   387
1070
     1
1070
   388
1040
0.0
1070
   390
1040
6.2831853071795853
  0
DIMENSION
  5
40F
  8
0
  2
*D4
 10
2551.1997070312299911
 20
6741.6962519468333994
 30
0.0
 11
1751.6719055175678932
 21
6743.7795852801646106
 31
0.0
 70
     0
 13
952.14410400390625
 23
6695.423828125
 33
0.0
 14
2551.1997070312299911
 24
6695.3251953125
 34
0.0
  0
DIMENSION
  5
4FF
  8
0
  2
*D5
 10
-1961.1401470322739442
 20
2989.1877089406630148
 30
0.0
 11
-2949.640513243211899
 21
2991.0627089406630148
 31
0.0
 70
     0
 13
-3938.1408794541489442
 23
3986.396871407971048
 33
0.0
 14
-1961.1401470322739442
 24
3170.396627267346048
 34
0.0
  0
DIMENSION
  5
517
  8
0
  2
*D6
 10
546.7519531249997726
 20
3958.7049502396339449
 30
0.0
 11
-528.2377929687498863
 21
3960.788283572966975
 31
0.0
 70
     0
 13
-1603.2275390625
 23
3897.240234375
 33
0.0
 14
546.7519531249997726
 24
3081.279052734375
 34
0.0
  0
ENDSEC
  0
EOF
